<?xml version="1.0" encoding="UTF-8"?>
<svg id="Layer_1" data-name="Layer 1" xmlns="http://www.w3.org/2000/svg" xmlns:xlink="http://www.w3.org/1999/xlink" version="1.1" viewBox="0 0 562.4 378.5">
  <defs>
    <style>
      .cls-1 {
        stroke-miterlimit: 10;
      }

      .cls-1, .cls-2 {
        fill: #595959;
      }

      .cls-1, .cls-3, .cls-4, .cls-5, .cls-6, .cls-7 {
        fill-rule: evenodd;
      }

      .cls-1, .cls-8 {
        stroke: #595959;
        stroke-width: 2px;
      }

      .cls-2, .cls-3, .cls-9, .cls-4, .cls-5, .cls-6, .cls-7, .cls-10 {
        stroke-width: 0px;
      }

      .cls-3 {
        fill: #d9ead3;
      }

      .cls-11 {
        clip-path: url(#clippath);
      }

      .cls-9, .cls-8 {
        fill: none;
      }

      .cls-4 {
        fill: #eee;
      }

      .cls-5 {
        fill-opacity: 0;
      }

      .cls-5, .cls-10 {
        fill: #000;
      }

      .cls-6 {
        fill: #d9d2e9;
      }

      .cls-8 {
        stroke-linejoin: round;
      }

      .cls-7 {
        fill: #cfe2f3;
      }
    </style>
    <clipPath id="clippath">
      <rect class="cls-9" x="-127.7" y="-114.8" width="855.9" height="643.6"/>
    </clipPath>
  </defs>
  <g class="cls-11">
    <g>
      <path class="cls-5" d="M-127.7-114.8h855.9v643.6H-127.7V-114.8Z"/>
      <path class="cls-6" d="M46,71.6h0c0-33.1,26.8-59.9,59.8-59.9h291.8c15.9,0,31.1,6.3,42.3,17.6,11.2,11.2,17.5,26.5,17.5,42.4v239.7c0,33.1-26.8,59.9-59.8,59.9H105.8c-33,0-59.8-26.8-59.8-59.9V71.6Z"/>
      <path class="cls-8" d="M46,71.6h0c0-33.1,26.8-59.9,59.8-59.9h291.8c15.9,0,31.1,6.3,42.3,17.6,11.2,11.2,17.5,26.5,17.5,42.4v239.7c0,33.1-26.8,59.9-59.8,59.9H105.8c-33,0-59.8-26.8-59.8-59.9V71.6Z"/>
      <path class="cls-5" d="M321.7,265.8h132.6v33.9h-132.6v-33.9Z"/>
      <path class="cls-2" d="M353.7,283.3v-1.4h-5.3v-4.1h6.1v-1.4h-7.7v12.7h7.8v-1.4h-6.2v-4.5h5.3ZM360.7,289.2h1.2l3.8-9.4h-1.6l-2.6,7.1-.2.6v-.6c-.1,0-2.8-7.1-2.8-7.1h-1.7l3.9,9.4ZM372.3,289.4c.9,0,1.7-.2,2.3-.6.6-.4,1.1-.8,1.4-1.3l-1-.8c-.3.4-.7.7-1.1.9-.4.2-1,.3-1.5.3s-.8,0-1.2-.2c-.4-.2-.7-.4-.9-.7-.3-.3-.5-.6-.6-.9-.1-.4-.2-.8-.3-1.2h0c0,0,6.7,0,6.7,0v-.7c0-.7,0-1.3-.3-1.8-.2-.6-.4-1.1-.8-1.5-.3-.4-.8-.7-1.3-1-.5-.2-1.1-.4-1.8-.4s-1.1.1-1.6.3c-.5.2-1,.5-1.4.9-.4.4-.7.9-1,1.5-.2.6-.4,1.3-.4,2v.4c0,.7.1,1.3.3,1.8s.5,1,.9,1.5c.4.4.9.7,1.4,1,.6.2,1.2.3,1.8.3ZM372.1,280.9c.4,0,.8,0,1.1.2.3.1.5.3.8.6.2.2.3.5.5.9s.2.6.2.9h0c0,0-5.1,0-5.1,0,0-.4.2-.8.3-1.2.2-.3.4-.6.6-.9.2-.2.5-.4.8-.5.3-.1.6-.2.9-.2ZM378.9,289.2h1.6v-6.8c.1-.2.2-.4.4-.6.1-.2.3-.3.5-.4.2-.1.4-.3.7-.3.3,0,.5-.1.8-.1s.6,0,.9.1c.3,0,.5.2.7.4.2.2.3.4.4.7,0,.3.1.6.1,1.1v6h1.6v-6c0-.6,0-1.2-.2-1.6-.1-.5-.4-.8-.7-1.1-.3-.3-.6-.5-1-.7-.4-.1-.8-.2-1.3-.2-.4,0-.7,0-1,.2-.3.1-.6.2-.9.4-.2.1-.4.3-.5.4-.2.2-.3.3-.4.5v-1.4h-1.6v9.4ZM393.4,277.5h-1.6v2.3h-2.5v1.2h2.5v5.1c0,.6,0,1.1.2,1.5.2.4.4.7.6,1,.3.3.6.5.9.6.4.1.8.2,1.2.2s.5,0,.8,0c.3,0,.5,0,.7,0,.2,0,.4,0,.6-.2.2,0,.4-.1.5-.2l-.2-1.1c0,0-.2,0-.4,0-.1,0-.3,0-.5,0-.2,0-.4,0-.5,0-.2,0-.4,0-.5,0s-.5,0-.7,0c-.2,0-.4-.2-.6-.3-.2-.1-.3-.3-.4-.6,0-.2-.1-.5-.1-.9v-5.1h3.6v-1.2h-3.6v-2.3ZM411,276.5v1.4h3v9.9h-3v1.4h7.7v-1.4h-3v-9.9h3v-1.4h-7.7ZM421.5,289.2h2.9c.6,0,1.2,0,1.7-.2.5-.1,1-.3,1.4-.6.4-.3.8-.6,1.1-.9.3-.4.6-.7.8-1.2.2-.4.4-.9.5-1.4.1-.5.2-1,.2-1.6v-.9c0-.6,0-1.1-.2-1.6-.1-.5-.3-1-.5-1.4-.2-.5-.6-.9-1-1.3-.4-.4-.8-.7-1.4-.9-.4-.2-.8-.3-1.2-.4-.4,0-.9-.1-1.4-.2h-2.9v12.7ZM423.1,277.8h1.3c.4,0,.8,0,1.1.1s.6.2.9.3c.4.2.7.5,1,.8.3.3.5.7.6,1.1.1.3.2.7.3,1,0,.4,0,.7,0,1.1v.9c0,.4,0,.8,0,1.1,0,.4-.1.7-.3,1-.1.4-.3.7-.6,1-.2.3-.5.6-.8.8-.3.2-.6.4-1,.5-.4.1-.8.2-1.3.2h-1.3v-10.1Z"/>
      <path class="cls-7" d="M56.5,242h0c0-5,4-9,8.9-9h152.8c2.4,0,4.6.9,6.3,2.6s2.6,4,2.6,6.3v35.9c0,5-4,9-8.9,9H65.4c-4.9,0-8.9-4-8.9-9v-35.9Z"/>
      <path class="cls-8" d="M56.5,242h0c0-5,4-9,8.9-9h152.8c2.4,0,4.6.9,6.3,2.6s2.6,4,2.6,6.3v35.9c0,5-4,9-8.9,9H65.4c-4.9,0-8.9-4-8.9-9v-35.9Z"/>
      <path class="cls-10" d="M96.4,266.3c-1.6,0-3-.5-4.1-1.6-1.1-1.1-1.6-2.5-1.6-4.1s.5-3.1,1.6-4.1,2.4-1.6,4.1-1.6,3.2.7,4.2,2.2l-1.2.7c-.3-.5-.8-.9-1.3-1.2-.5-.3-1.1-.5-1.8-.5-1.2,0-2.2.4-3.1,1.3s-1.2,1.9-1.2,3.2.4,2.4,1.2,3.3c.8.8,1.8,1.3,3.1,1.3s1.2-.1,1.8-.4c.5-.3,1-.7,1.3-1.2l1.2.7c-1.1,1.5-2.5,2.2-4.2,2.2ZM102.1,268.1c.2,0,.4.1.7.1s.5,0,.7-.2c.2-.1.4-.3.5-.7l.5-1.2-3.4-8.1h1.3l2.7,6.6,2.7-6.6h1.4l-4,9.7c-.4,1.1-1.2,1.6-2.4,1.6-.3,0-.6,0-.9-.1l.2-1.1ZM114.1,266.3c-1.2,0-2.1-.4-2.9-1.2-.7-.8-1.1-1.8-1.1-3s.4-2.2,1.1-3c.8-.8,1.7-1.2,2.9-1.2s2.2.5,2.9,1.4l-.8.8c-.5-.7-1.2-1-2-1s-1.5.3-2,.9c-.5.6-.8,1.3-.8,2.2s.3,1.7.8,2.3c.5.6,1.2.9,2,.9s1.5-.3,2-1l.8.8c-.7.9-1.7,1.4-2.9,1.4ZM118.8,266.1v-11.1h1.2v11.1h-1.2ZM126.1,266.3c-1.2,0-2.2-.4-3-1.2-.8-.8-1.1-1.8-1.1-3.1s.4-2.2,1.1-3c.8-.8,1.7-1.2,2.8-1.2s2.1.4,2.8,1.2c.7.8,1.1,1.8,1.1,3.1v.3h-6.5c0,.8.3,1.5.9,2,.5.5,1.2.8,2,.8s1.8-.3,2.5-1l.6.8c-.8.8-1.9,1.2-3.2,1.2ZM128.6,261.5c0-.7-.2-1.4-.7-1.9-.5-.5-1.1-.8-1.9-.8s-1.4.3-1.9.8c-.5.5-.8,1.2-.8,1.9h5.3ZM141.5,266.3c-1.6,0-3-.5-4.1-1.6-1.1-1.1-1.6-2.5-1.6-4.1s.5-3.1,1.6-4.1,2.4-1.6,4.1-1.6,3.2.7,4.2,2.2l-1.2.7c-.3-.5-.8-.9-1.3-1.2-.5-.3-1.1-.5-1.8-.5-1.2,0-2.2.4-3.1,1.3s-1.2,1.9-1.2,3.2.4,2.4,1.2,3.3c.8.8,1.8,1.3,3.1,1.3s1.2-.1,1.8-.4c.5-.3,1-.7,1.3-1.2l1.2.7c-1.1,1.5-2.5,2.2-4.2,2.2ZM150.9,266.3c-1.2,0-2.1-.4-2.9-1.2-.7-.8-1.1-1.8-1.1-3s.4-2.3,1.1-3c.7-.8,1.7-1.2,2.9-1.2s2.1.4,2.9,1.2c.7.8,1.1,1.8,1.1,3s-.4,2.3-1.1,3c-.7.8-1.7,1.2-2.9,1.2ZM150.9,265.2c.8,0,1.4-.3,1.9-.9.5-.6.8-1.3.8-2.2s-.3-1.6-.8-2.2c-.5-.6-1.1-.9-1.9-.9s-1.4.3-1.9.9c-.5.6-.8,1.3-.8,2.2s.3,1.7.8,2.2,1.1.9,1.9.9ZM162.3,266.1v-1.1c-.3.4-.7.7-1.2.9-.5.3-1,.4-1.6.4-1.7,0-2.5-.9-2.5-2.6v-5.7h1.2v5.3c0,.6.1,1.1.4,1.4.3.3.7.4,1.4.4s1-.1,1.4-.4c.4-.2.8-.5,1-.9v-5.9h1.2v8.1h-1.2ZM171.5,266.1v-5.3c0-.7-.2-1.2-.5-1.5-.3-.3-.8-.4-1.3-.4s-.9.1-1.4.4c-.4.3-.8.5-1,.9v5.9h-1.2v-8.1h1.2v1.2c.3-.4.8-.7,1.3-1,.5-.3,1-.4,1.6-.4,1.7,0,2.6.9,2.6,2.6v5.7h-1.2ZM177.3,266.3c-1.2,0-1.8-.6-1.8-1.9v-5.3h-1.3v-1.1h1.3v-2.2h1.3v2.2h1.6v1.1h-1.6v5c0,.3,0,.6.2.8.1.2.3.3.6.3s.6-.1.8-.3l.4.9c-.3.3-.8.5-1.5.5ZM183.8,266.3c-1.2,0-2.2-.4-3-1.2-.8-.8-1.1-1.8-1.1-3.1s.4-2.2,1.1-3c.8-.8,1.7-1.2,2.8-1.2s2.1.4,2.8,1.2c.7.8,1.1,1.8,1.1,3.1v.3h-6.5c0,.8.3,1.5.9,2,.5.5,1.2.8,2,.8s1.8-.3,2.5-1l.6.8c-.8.8-1.9,1.2-3.2,1.2ZM186.3,261.5c0-.7-.2-1.4-.7-1.9-.5-.5-1.1-.8-1.9-.8s-1.4.3-1.9.8c-.5.5-.8,1.2-.8,1.9h5.3ZM189.5,266.1v-8.1h1.2v1.3c.7-1,1.6-1.5,2.7-1.5v1.3h-.5c-.4,0-.8,0-1.3.4-.5.3-.8.6-.9.9v5.7h-1.2Z"/>
      <path class="cls-7" d="M56.5,304.4h0c0-3.1,2.5-5.7,5.6-5.7h159.4c1.5,0,2.9.6,4,1.7s1.7,2.5,1.7,4v22.6c0,3.1-2.5,5.7-5.6,5.7H62.1c-3.1,0-5.6-2.5-5.6-5.7v-22.6Z"/>
      <path class="cls-8" d="M56.5,304.4h0c0-3.1,2.5-5.7,5.6-5.7h159.4c1.5,0,2.9.6,4,1.7s1.7,2.5,1.7,4v22.6c0,3.1-2.5,5.7-5.6,5.7H62.1c-3.1,0-5.6-2.5-5.6-5.7v-22.6Z"/>
      <path class="cls-10" d="M102.7,322.1c-1.6,0-3-.5-4.1-1.6-1.1-1.1-1.6-2.5-1.6-4.1s.5-3.1,1.6-4.1c1.1-1.1,2.5-1.6,4.1-1.6s3.2.7,4.3,2.1l-1.1.7c-.4-.5-.8-.8-1.4-1.1-.6-.3-1.2-.4-1.8-.4-1.2,0-2.2.4-3.1,1.3-.8.9-1.2,1.9-1.2,3.2s.4,2.4,1.2,3.3c.8.9,1.8,1.3,3.1,1.3s1.1-.1,1.6-.3c.5-.2,1-.5,1.4-.9v-2.3h-3.8v-1.2h5.2v4c-1.2,1.3-2.6,1.9-4.4,1.9ZM112.9,322.1c-1.2,0-2.2-.4-3-1.2-.8-.8-1.1-1.8-1.1-3.1s.4-2.2,1.1-3c.8-.8,1.7-1.2,2.8-1.2s2.1.4,2.8,1.2c.7.8,1.1,1.8,1.1,3.1v.3h-6.5c0,.8.3,1.5.9,2,.5.5,1.2.8,2,.8s1.8-.3,2.5-1l.6.8c-.8.8-1.9,1.2-3.2,1.2ZM115.4,317.3c0-.7-.2-1.4-.7-1.9-.5-.5-1.1-.8-1.9-.8s-1.4.3-1.9.8c-.5.5-.8,1.2-.8,1.9h5.3ZM124.1,321.9v-5.3c0-.7-.2-1.2-.5-1.5-.3-.3-.8-.4-1.3-.4s-.9.1-1.4.4c-.4.3-.8.5-1,.9v5.9h-1.2v-8.1h1.2v1.2c.3-.4.8-.7,1.3-1,.5-.3,1-.4,1.6-.4,1.7,0,2.6.9,2.6,2.6v5.7h-1.2ZM127.8,321.9v-11.1h7.3v1.2h-5.9v3.6h5.8v1.2h-5.8v3.8h5.9v1.2h-7.3ZM139.4,321.9l-3.3-8.1h1.3l2.7,6.6,2.7-6.6h1.4l-3.3,8.1h-1.4ZM149,322.1c-1.2,0-2.2-.4-3-1.2-.8-.8-1.1-1.8-1.1-3.1s.4-2.2,1.1-3c.8-.8,1.7-1.2,2.8-1.2s2.1.4,2.8,1.2c.7.8,1.1,1.8,1.1,3.1v.3h-6.5c0,.8.3,1.5.9,2,.5.5,1.2.8,2,.8s1.8-.3,2.5-1l.6.8c-.8.8-1.9,1.2-3.2,1.2ZM151.5,317.3c0-.7-.2-1.4-.7-1.9-.5-.5-1.1-.8-1.9-.8s-1.4.3-1.9.8c-.5.5-.8,1.2-.8,1.9h5.3ZM160.2,321.9v-5.3c0-.7-.2-1.2-.5-1.5-.3-.3-.8-.4-1.3-.4s-.9.1-1.4.4c-.4.3-.8.5-1,.9v5.9h-1.2v-8.1h1.2v1.2c.3-.4.8-.7,1.3-1,.5-.3,1-.4,1.6-.4,1.7,0,2.6.9,2.6,2.6v5.7h-1.2ZM166,322.1c-1.2,0-1.8-.6-1.8-1.9v-5.3h-1.3v-1.1h1.3v-2.2h1.3v2.2h1.6v1.1h-1.6v5c0,.3,0,.6.2.8.1.2.3.3.6.3s.6-.1.8-.3l.4.9c-.3.3-.8.5-1.5.5ZM173.2,321.9v-11.1h1.4v11.1h-1.4ZM177.1,321.9v-11.1h3.8c1.7,0,3.1.5,4.1,1.6,1.1,1,1.6,2.4,1.6,4s-.5,3-1.6,4c-1.1,1-2.4,1.6-4.1,1.6h-3.8ZM180.9,320.6c1.3,0,2.3-.4,3.1-1.2.8-.8,1.2-1.8,1.2-3.1s-.4-2.3-1.2-3.1c-.8-.8-1.8-1.2-3.1-1.2h-2.4v8.7h2.4Z"/>
      <path class="cls-4" d="M254.3,282.8h0c0-7.2,5.8-13,13-13h0c3.4,0,6.8,1.4,9.2,3.8,2.4,2.4,3.8,5.8,3.8,9.2h0c0,7.2-5.8,13-13,13h0c-7.2,0-13-5.8-13-13Z"/>
      <path class="cls-8" d="M254.3,282.8h0c0-7.2,5.8-13,13-13h0c3.4,0,6.8,1.4,9.2,3.8,2.4,2.4,3.8,5.8,3.8,9.2h0c0,7.2-5.8,13-13,13h0c-7.2,0-13-5.8-13-13Z"/>
      <path class="cls-10" d="M268,282.7v-3.5h-1.5v3.5h-3.3v1.5h3.3v3.7h1.5v-3.7h3.3v-1.5h-3.3Z"/>
      <path class="cls-5" d="M227.2,315.7l30.9-23.6"/>
      <path class="cls-8" d="M227.2,315.7l26-19.9"/>
      <path class="cls-1" d="M253.2,295.8l-.4,2.8,3.2-5-5.6,1.8,2.8.4Z"/>
      <path class="cls-5" d="M280.3,282.8h56.8"/>
      <path class="cls-8" d="M280.3,282.8h56.8"/>
      <path class="cls-5" d="M4.7,78.5h41.3"/>
      <path class="cls-8" d="M4.7,78.5h30.6"/>
      <path class="cls-1" d="M35.4,81.4l8.1-3-8.1-3v5.9Z"/>
      <path class="cls-5" d="M4.7,111.2h41.3"/>
      <path class="cls-8" d="M4.7,111.2h30.6"/>
      <path class="cls-1" d="M35.4,114.1l8.1-3-8.1-3v5.9Z"/>
      <path class="cls-5" d="M4.7,145.2h41.3"/>
      <path class="cls-8" d="M4.7,145.2h30.6"/>
      <path class="cls-1" d="M35.4,148.1l8.1-3-8.1-3v5.9Z"/>
      <path class="cls-5" d="M444.6,282.8h41.3"/>
      <path class="cls-8" d="M444.6,282.8h30.6"/>
      <path class="cls-1" d="M475.2,285.8l8.1-3-8.1-3v5.9Z"/>
      <path class="cls-3" d="M144.9,96.3h0c0-4.1,3.3-7.5,7.4-7.5h279.1c2,0,3.9.8,5.3,2.2,1.4,1.4,2.2,3.3,2.2,5.3v29.8c0,4.1-3.3,7.5-7.4,7.5H152.3c-4.1,0-7.4-3.3-7.4-7.5v-29.8Z"/>
      <path class="cls-8" d="M144.9,96.3h0c0-4.1,3.3-7.5,7.4-7.5h279.1c2,0,3.9.8,5.3,2.2,1.4,1.4,2.2,3.3,2.2,5.3v29.8c0,4.1-3.3,7.5-7.4,7.5H152.3c-4.1,0-7.4-3.3-7.4-7.5v-29.8Z"/>
      <path class="cls-2" d="M162.1,111.7v-.8h-3.2v-2.5h3.6v-.8h-4.6v7.6h4.7v-.8h-3.7v-2.7h3.2ZM166.3,115.2h.7l2.3-5.7h-1l-1.6,4.3v.3c0,0-.2-.3-.2-.3l-1.6-4.3h-1l2.3,5.7ZM173.3,115.3c.5,0,1-.1,1.4-.3.4-.2.7-.5.8-.8l-.6-.5c-.2.2-.4.4-.7.6-.3.1-.6.2-.9.2s-.5,0-.7-.1c-.2-.1-.4-.2-.6-.4-.1-.2-.3-.3-.3-.5,0-.2-.1-.5-.2-.7h0s4,0,4,0v-.4c0-.4,0-.8-.2-1.1,0-.3-.2-.6-.4-.9-.2-.3-.5-.4-.8-.6-.3-.1-.7-.2-1.1-.2-.3,0-.6,0-1,.2-.3.1-.6.3-.8.6-.2.3-.4.6-.6.9-.1.4-.2.8-.2,1.2v.2c0,.4,0,.8.2,1.1.1.3.3.6.6.9.2.2.5.4.8.6s.7.2,1.1.2ZM173.2,110.2c.2,0,.5,0,.6.1.2,0,.3.2.5.3.1.1.2.3.3.5,0,.2.1.4.1.6h0s-3.1,0-3.1,0c0-.3.1-.5.2-.7.1-.2.2-.4.4-.5.1-.1.3-.2.5-.3.2,0,.4-.1.6-.1ZM177.2,115.2h1v-4.1c0-.1.1-.2.2-.3,0-.1.2-.2.3-.3.1,0,.3-.2.4-.2.2,0,.3,0,.5,0,.2,0,.4,0,.5,0,.2,0,.3.1.4.2.1.1.2.2.3.4,0,.2,0,.4,0,.6v3.6h1v-3.6c0-.4,0-.7-.1-1,0-.3-.2-.5-.4-.7-.2-.2-.4-.3-.6-.4-.2,0-.5-.1-.8-.1-.2,0-.4,0-.6,0-.2,0-.4.1-.5.3-.1,0-.2.2-.3.3-.1,0-.2.2-.3.3v-.8h-.9v5.7ZM185.9,108.2h-1v1.4h-1.5v.8h1.5v3.1c0,.4,0,.7.1.9,0,.2.2.4.4.6.2.2.3.3.6.3.2,0,.5.1.7.1s.3,0,.4,0c.2,0,.3,0,.4,0,.1,0,.3,0,.4,0,.1,0,.2,0,.3-.1v-.7c-.2,0-.3,0-.4,0,0,0-.2,0-.3,0-.1,0-.2,0-.3,0-.1,0-.2,0-.3,0s-.3,0-.4,0c-.1,0-.2,0-.3-.2,0,0-.2-.2-.2-.3,0-.1,0-.3,0-.6v-3.1h2.1v-.8h-2.1v-1.4ZM191,112.1h0c0,.6,0,1,.1,1.5,0,.4.2.8.3,1.2.1.4.3.7.4,1,.2.3.4.6.6.8.2.2.4.4.6.6.2.2.4.3.5.4l.2-.6c-.1-.1-.3-.3-.4-.4-.1-.2-.3-.3-.4-.6-.1-.2-.3-.5-.4-.7-.1-.3-.2-.6-.3-.9,0-.3-.2-.7-.2-1,0-.4,0-.8,0-1.2h0c0-.5,0-.9,0-1.3,0-.4.1-.8.2-1.1,0-.4.2-.7.4-1,.1-.3.3-.6.5-.8.1-.1.2-.3.3-.4.1-.1.2-.2.3-.3l-.2-.6c-.2,0-.3.2-.5.4-.2.2-.4.4-.6.6-.2.2-.4.5-.6.8-.2.3-.3.6-.4,1-.1.4-.2.8-.3,1.2,0,.4-.1.9-.1,1.4ZM196.5,115.2h1v-4.1c0-.1.1-.2.2-.3,0-.1.2-.2.3-.3.1,0,.3-.2.4-.2.2,0,.3,0,.5,0,.2,0,.4,0,.5,0,.2,0,.3.1.4.2.1.1.2.2.3.4,0,.2,0,.4,0,.6v3.6h1v-3.6c0-.4,0-.7-.1-1,0-.3-.2-.5-.4-.7-.2-.2-.4-.3-.6-.4-.2,0-.5-.1-.8-.1-.2,0-.4,0-.6,0-.2,0-.4.1-.5.3-.1,0-.2.2-.3.3-.1,0-.2.2-.3.3v-.8h-.9v5.7ZM206.6,115.2h1c0-.2-.1-.4-.1-.6,0-.2,0-.4,0-.6v-2.6c0-.3,0-.6-.2-.8-.1-.2-.3-.4-.5-.6-.2-.1-.4-.3-.7-.3-.3,0-.6-.1-.9-.1-.3,0-.7,0-.9.2-.3,0-.5.2-.7.4-.2.2-.3.3-.4.5-.1.2-.2.4-.2.6h1c0-.1,0-.2,0-.3,0-.1.1-.2.2-.3.1,0,.2-.1.4-.2.2,0,.3,0,.5,0,.2,0,.4,0,.5,0,.2,0,.3.1.4.2.1,0,.2.2.3.3,0,.1,0,.3,0,.5v.4h-1.1c-.4,0-.7,0-1.1.1-.3,0-.6.2-.8.3-.2.2-.4.4-.5.6-.1.2-.2.5-.2.8s0,.5.1.7c0,.2.2.4.4.5.2.1.4.3.6.4.2,0,.5.1.8.1s.4,0,.5,0c.2,0,.3,0,.5-.2.1,0,.3-.1.4-.2.1,0,.2-.2.3-.3,0,.1,0,.2,0,.3,0,.1,0,.2,0,.3ZM204.9,114.5c-.2,0-.4,0-.5,0-.1,0-.3-.1-.3-.2,0,0-.2-.2-.2-.3,0-.1,0-.3,0-.4s0-.3,0-.4c0-.1.1-.2.2-.3.1-.1.3-.2.6-.3.3,0,.5,0,.9,0h.9v1.1c0,.1-.1.2-.2.3,0,.1-.2.2-.3.3-.1,0-.3.1-.4.2-.2,0-.3,0-.5,0ZM209.7,109.5h-.9v5.7h.9v-4.5c0,0,0-.1,0-.2,0,0,0,0,.1-.1,0,0,.1,0,.2,0,0,0,.2,0,.3,0,.1,0,.2,0,.3,0,0,0,.1,0,.2.1,0,0,0,.1.1.2,0,0,0,.2,0,.3v4.2h.9v-4.2h0c0-.2,0-.3,0-.3,0,0,0-.1.1-.2,0,0,.1,0,.2-.1,0,0,.2,0,.3,0,.1,0,.2,0,.3,0,0,0,.2,0,.2.1,0,0,0,.1.1.2,0,0,0,.2,0,.3v4.2h.9v-4.2c0-.3,0-.5,0-.7,0-.2-.2-.4-.3-.5-.1-.1-.2-.2-.4-.3-.2,0-.3,0-.5,0-.1,0-.3,0-.4,0-.1,0-.2,0-.3.1,0,0-.1.1-.2.2,0,0-.1.1-.2.2,0,0,0-.2-.1-.2,0,0-.1-.1-.2-.2,0,0-.2-.1-.3-.1-.1,0-.3,0-.4,0-.3,0-.5,0-.7.2-.2.1-.3.3-.4.5v-.5ZM218.2,115.3c.5,0,1-.1,1.4-.3.4-.2.7-.5.8-.8l-.6-.5c-.2.2-.4.4-.7.6-.3.1-.6.2-.9.2s-.5,0-.7-.1c-.2-.1-.4-.2-.6-.4-.1-.2-.3-.3-.3-.5,0-.2-.1-.5-.2-.7h0s4,0,4,0v-.4c0-.4,0-.8-.2-1.1,0-.3-.2-.6-.4-.9-.2-.3-.5-.4-.8-.6-.3-.1-.7-.2-1.1-.2-.3,0-.6,0-1,.2-.3.1-.6.3-.8.6-.2.3-.4.6-.6.9-.1.4-.2.8-.2,1.2v.2c0,.4,0,.8.2,1.1.1.3.3.6.6.9.2.2.5.4.8.6s.7.2,1.1.2ZM218.1,110.2c.2,0,.5,0,.6.1.2,0,.3.2.5.3.1.1.2.3.3.5,0,.2.1.4.1.6h0s-3.1,0-3.1,0c0-.3.1-.5.2-.7.1-.2.2-.4.4-.5.1-.1.3-.2.5-.3.2,0,.4-.1.6-.1ZM224.6,115v-.9h-1v.9c0,.3,0,.6-.1.9,0,.3-.2.5-.3.8l.6.3c.3-.3.5-.6.7-.9.2-.4.3-.7.3-1.1ZM239.2,111.7v-.8h-3.2v-2.5h3.6v-.8h-4.6v7.6h4.7v-.8h-3.7v-2.7h3.2ZM243.3,115.2h.7l2.3-5.7h-1l-1.6,4.3v.3c0,0-.2-.3-.2-.3l-1.6-4.3h-1l2.3,5.7ZM250.3,115.3c.5,0,1-.1,1.4-.3.4-.2.7-.5.8-.8l-.6-.5c-.2.2-.4.4-.7.6-.3.1-.6.2-.9.2s-.5,0-.7-.1c-.2-.1-.4-.2-.6-.4-.1-.2-.3-.3-.3-.5,0-.2-.1-.5-.2-.7h0s4,0,4,0v-.4c0-.4,0-.8-.2-1.1,0-.3-.2-.6-.4-.9-.2-.3-.5-.4-.8-.6-.3-.1-.7-.2-1.1-.2-.3,0-.6,0-1,.2-.3.1-.6.3-.8.6-.2.3-.4.6-.6.9-.1.4-.2.8-.2,1.2v.2c0,.4,0,.8.2,1.1.1.3.3.6.6.9.2.2.5.4.8.6s.7.2,1.1.2ZM250.2,110.2c.2,0,.5,0,.6.1.2,0,.3.2.5.3.1.1.2.3.3.5,0,.2.1.4.1.6h0s-3.1,0-3.1,0c0-.3.1-.5.2-.7.1-.2.2-.4.4-.5.1-.1.3-.2.5-.3.2,0,.4-.1.6-.1ZM254.2,115.2h1v-4.1c0-.1.1-.2.2-.3,0-.1.2-.2.3-.3.1,0,.3-.2.4-.2.2,0,.3,0,.5,0,.2,0,.4,0,.5,0,.2,0,.3.1.4.2.1.1.2.2.3.4,0,.2,0,.4,0,.6v3.6h1v-3.6c0-.4,0-.7-.1-1,0-.3-.2-.5-.4-.7-.2-.2-.4-.3-.6-.4-.2,0-.5-.1-.8-.1-.2,0-.4,0-.6,0-.2,0-.4.1-.5.3-.1,0-.2.2-.3.3-.1,0-.2.2-.3.3v-.8h-.9v5.7ZM263,108.2h-1v1.4h-1.5v.8h1.5v3.1c0,.4,0,.7.1.9,0,.2.2.4.4.6.2.2.3.3.6.3.2,0,.5.1.7.1s.3,0,.4,0c.2,0,.3,0,.4,0,.1,0,.3,0,.4,0,.1,0,.2,0,.3-.1v-.7c-.2,0-.3,0-.4,0,0,0-.2,0-.3,0-.1,0-.2,0-.3,0-.1,0-.2,0-.3,0s-.3,0-.4,0c-.1,0-.2,0-.3-.2,0,0-.2-.2-.2-.3,0-.1,0-.3,0-.6v-3.1h2.1v-.8h-2.1v-1.4ZM273.5,107.6v.8h1.8v5.9h-1.8v.8h4.6v-.8h-1.8v-5.9h1.8v-.8h-4.6ZM279.8,115.2h1.8c.4,0,.7,0,1-.1.3,0,.6-.2.8-.4.2-.1.4-.3.6-.5.2-.2.4-.5.5-.7.1-.3.2-.5.3-.8,0-.3,0-.6,0-1v-.6c0-.3,0-.7-.1-1,0-.3-.2-.6-.3-.9-.1-.3-.3-.6-.6-.8-.2-.2-.5-.4-.8-.6-.2-.1-.5-.2-.7-.2-.3,0-.5,0-.8,0h-1.8v7.6ZM280.8,108.4h.8c.2,0,.5,0,.7,0,.2,0,.4.1.6.2.2.1.4.3.6.5.2.2.3.4.4.7,0,.2.1.4.2.6,0,.2,0,.4,0,.7v.6c0,.2,0,.5,0,.7,0,.2,0,.4-.2.6,0,.2-.2.4-.3.6-.1.2-.3.3-.5.5-.2.1-.4.2-.6.3-.2,0-.5,0-.8,0h-.8v-6ZM288.8,115v-.9h-1v.9c0,.3,0,.6-.1.9,0,.3-.2.5-.3.8l.6.3c.3-.3.5-.6.7-.9.2-.4.3-.7.3-1.1ZM299.1,115.2h1.8c.4,0,.7,0,1-.1.3,0,.6-.2.8-.4.2-.1.4-.3.6-.5.2-.2.4-.5.5-.7.1-.3.2-.5.3-.8,0-.3,0-.6,0-1v-.6c0-.3,0-.7-.1-1,0-.3-.2-.6-.3-.9-.1-.3-.3-.6-.6-.8-.2-.2-.5-.4-.8-.6-.2-.1-.5-.2-.7-.2-.3,0-.5,0-.8,0h-1.8v7.6ZM300.1,108.4h.8c.2,0,.5,0,.7,0,.2,0,.4.1.6.2.2.1.4.3.6.5.2.2.3.4.4.7,0,.2.1.4.2.6,0,.2,0,.4,0,.7v.6c0,.2,0,.5,0,.7,0,.2,0,.4-.2.6,0,.2-.2.4-.3.6-.1.2-.3.3-.5.5-.2.1-.4.2-.6.3-.2,0-.5,0-.8,0h-.8v-6ZM309.3,115.2h1c0-.2-.1-.4-.1-.6,0-.2,0-.4,0-.6v-2.6c0-.3,0-.6-.2-.8-.1-.2-.3-.4-.5-.6-.2-.1-.4-.3-.7-.3-.3,0-.6-.1-.9-.1-.3,0-.7,0-.9.2-.3,0-.5.2-.7.4-.2.2-.3.3-.4.5-.1.2-.2.4-.2.6h1c0-.1,0-.2,0-.3,0-.1.1-.2.2-.3.1,0,.2-.1.4-.2.2,0,.3,0,.5,0,.2,0,.4,0,.5,0,.2,0,.3.1.4.2.1,0,.2.2.3.3,0,.1,0,.3,0,.5v.4h-1.1c-.4,0-.7,0-1.1.1-.3,0-.6.2-.8.3-.2.2-.4.4-.5.6-.1.2-.2.5-.2.8s0,.5.1.7c0,.2.2.4.4.5.2.1.4.3.6.4.2,0,.5.1.8.1s.4,0,.5,0c.2,0,.3,0,.5-.2.1,0,.3-.1.4-.2.1,0,.2-.2.3-.3,0,.1,0,.2,0,.3,0,.1,0,.2,0,.3ZM307.6,114.5c-.2,0-.4,0-.5,0-.1,0-.3-.1-.3-.2,0,0-.2-.2-.2-.3,0-.1,0-.3,0-.4s0-.3,0-.4c0-.1.1-.2.2-.3.1-.1.3-.2.6-.3.3,0,.5,0,.9,0h.9v1.1c0,.1-.1.2-.2.3,0,.1-.2.2-.3.3-.1,0-.3.1-.4.2-.2,0-.3,0-.5,0ZM314.3,108.2h-1v1.4h-1.5v.8h1.5v3.1c0,.4,0,.7.1.9,0,.2.2.4.4.6.2.2.3.3.6.3.2,0,.5.1.7.1s.3,0,.4,0c.2,0,.3,0,.4,0,.1,0,.3,0,.4,0,.1,0,.2,0,.3-.1v-.7c-.2,0-.3,0-.4,0,0,0-.2,0-.3,0-.1,0-.2,0-.3,0-.1,0-.2,0-.3,0s-.3,0-.4,0c-.1,0-.2,0-.3-.2,0,0-.2-.2-.2-.3,0-.1,0-.3,0-.6v-3.1h2.1v-.8h-2.1v-1.4ZM322.2,115.2h1c0-.2-.1-.4-.1-.6,0-.2,0-.4,0-.6v-2.6c0-.3,0-.6-.2-.8-.1-.2-.3-.4-.5-.6-.2-.1-.4-.3-.7-.3-.3,0-.6-.1-.9-.1-.3,0-.7,0-.9.2-.3,0-.5.2-.7.4-.2.2-.3.3-.4.5-.1.2-.2.4-.2.6h1c0-.1,0-.2,0-.3,0-.1.1-.2.2-.3.1,0,.2-.1.4-.2.2,0,.3,0,.5,0,.2,0,.4,0,.5,0,.2,0,.3.1.4.2.1,0,.2.2.3.3,0,.1,0,.3,0,.5v.4h-1.1c-.4,0-.7,0-1.1.1-.3,0-.6.2-.8.3-.2.2-.4.4-.5.6-.1.2-.2.5-.2.8s0,.5.1.7c0,.2.2.4.4.5.2.1.4.3.6.4.2,0,.5.1.8.1s.4,0,.5,0c.2,0,.3,0,.5-.2.1,0,.3-.1.4-.2.1,0,.2-.2.3-.3,0,.1,0,.2,0,.3,0,.1,0,.2,0,.3ZM320.5,114.5c-.2,0-.4,0-.5,0-.1,0-.3-.1-.3-.2,0,0-.2-.2-.2-.3,0-.1,0-.3,0-.4s0-.3,0-.4c0-.1.1-.2.2-.3.1-.1.3-.2.6-.3.3,0,.5,0,.9,0h.9v1.1c0,.1-.1.2-.2.3,0,.1-.2.2-.3.3-.1,0-.3.1-.4.2-.2,0-.3,0-.5,0ZM327.3,115v-.9h-1v.9c0,.3,0,.6-.1.9,0,.3-.2.5-.3.8l.6.3c.3-.3.5-.6.7-.9.2-.4.3-.7.3-1.1ZM338.8,112.2h1.5c.3,0,.7,0,1-.2.3-.1.6-.3.8-.4.2-.2.4-.4.5-.7.1-.3.2-.6.2-1s0-.7-.2-1c-.1-.3-.3-.5-.5-.7-.2-.2-.5-.3-.8-.4-.3-.1-.6-.2-1-.2h-2.5v7.6h1v-3.1ZM338.8,111.4v-3h1.5c.2,0,.4,0,.6.1.2,0,.4.2.5.3.1.1.2.3.3.5,0,.2.1.4.1.6s0,.4-.1.6c0,.2-.2.3-.3.4-.1.1-.3.2-.5.3-.2,0-.4,0-.6,0h-1.5ZM347.8,115.2h1c0-.2-.1-.4-.1-.6,0-.2,0-.4,0-.6v-2.6c0-.3,0-.6-.2-.8-.1-.2-.3-.4-.5-.6-.2-.1-.4-.3-.7-.3-.3,0-.6-.1-.9-.1-.3,0-.7,0-.9.2-.3,0-.5.2-.7.4-.2.2-.3.3-.4.5-.1.2-.2.4-.2.6h1c0-.1,0-.2,0-.3,0-.1.1-.2.2-.3.1,0,.2-.1.4-.2.2,0,.3,0,.5,0,.2,0,.4,0,.5,0,.2,0,.3.1.4.2.1,0,.2.2.3.3,0,.1,0,.3,0,.5v.4h-1.1c-.4,0-.7,0-1.1.1-.3,0-.6.2-.8.3-.2.2-.4.4-.5.6-.1.2-.2.5-.2.8s0,.5.1.7c0,.2.2.4.4.5.2.1.4.3.6.4.2,0,.5.1.8.1s.4,0,.5,0c.2,0,.3,0,.5-.2.1,0,.3-.1.4-.2.1,0,.2-.2.3-.3,0,.1,0,.2,0,.3,0,.1,0,.2,0,.3ZM346.1,114.5c-.2,0-.4,0-.5,0-.1,0-.3-.1-.3-.2,0,0-.2-.2-.2-.3,0-.1,0-.3,0-.4s0-.3,0-.4c0-.1.1-.2.2-.3.1-.1.3-.2.6-.3.3,0,.5,0,.9,0h.9v1.1c0,.1-.1.2-.2.3,0,.1-.2.2-.3.3-.1,0-.3.1-.4.2-.2,0-.3,0-.5,0ZM354.3,109.4c-.4,0-.8,0-1.1.3-.3.2-.6.4-.8.7h0c0-.1,0-.9,0-.9h-.9v5.7h1v-3.6c0-.2.1-.3.2-.5.1-.1.2-.3.3-.4.1-.1.3-.2.5-.3.2,0,.4,0,.7,0,.2,0,.3,0,.5,0,.2,0,.4,0,.5,0v-.9s-.1,0-.3,0c-.2,0-.4,0-.6,0ZM359.5,115.3c.5,0,1-.1,1.4-.3s.7-.5.8-.8l-.6-.5c-.2.2-.4.4-.7.6s-.6.2-.9.2-.5,0-.7-.1c-.2-.1-.4-.2-.6-.4-.1-.2-.3-.3-.3-.5,0-.2-.1-.5-.2-.7h0s4,0,4,0v-.4c0-.4,0-.8-.2-1.1,0-.3-.2-.6-.4-.9-.2-.3-.5-.4-.8-.6-.3-.1-.7-.2-1.1-.2-.3,0-.6,0-1,.2-.3.1-.6.3-.8.6-.2.3-.4.6-.6.9-.1.4-.2.8-.2,1.2v.2c0,.4,0,.8.2,1.1.1.3.3.6.6.9.2.2.5.4.8.6s.7.2,1.1.2ZM359.4,110.2c.2,0,.5,0,.6.1.2,0,.3.2.5.3.1.1.2.3.3.5,0,.2.1.4.1.6h0s-3.1,0-3.1,0c0-.3.1-.5.2-.7.1-.2.2-.4.4-.5.1-.1.3-.2.5-.3.2,0,.4-.1.6-.1ZM363.4,115.2h1v-4.1c0-.1.1-.2.2-.3,0-.1.2-.2.3-.3.1,0,.3-.2.4-.2.2,0,.3,0,.5,0,.2,0,.4,0,.5,0,.2,0,.3.1.4.2.1.1.2.2.3.4,0,.2,0,.4,0,.6v3.6h1v-3.6c0-.4,0-.7-.1-1,0-.3-.2-.5-.4-.7-.2-.2-.4-.3-.6-.4-.2,0-.5-.1-.8-.1-.2,0-.4,0-.6,0-.2,0-.4.1-.5.3-.1,0-.2.2-.3.3-.1,0-.2.2-.3.3v-.8h-.9v5.7ZM372.1,108.2h-1v1.4h-1.5v.8h1.5v3.1c0,.4,0,.7.1.9,0,.2.2.4.4.6.2.2.3.3.6.3.2,0,.5.1.7.1s.3,0,.4,0c.2,0,.3,0,.4,0,.1,0,.3,0,.4,0,.1,0,.2,0,.3-.1v-.7c-.2,0-.3,0-.4,0,0,0-.2,0-.3,0-.1,0-.2,0-.3,0-.1,0-.2,0-.3,0s-.3,0-.4,0c-.1,0-.2,0-.3-.2,0,0-.2-.2-.2-.3,0-.1,0-.3,0-.6v-3.1h2.1v-.8h-2.1v-1.4ZM378.7,115v-.9h-1v.9c0,.3,0,.6-.1.9,0,.3-.2.5-.3.8l.6.3c.3-.3.5-.6.7-.9.2-.4.3-.7.3-1.1ZM394,112.9h-1c0,.2,0,.4-.2.6,0,.2-.2.4-.3.5-.1.1-.3.3-.5.3-.2,0-.4.1-.7.1s-.4,0-.6-.1c-.2,0-.3-.2-.4-.3-.1-.1-.2-.3-.3-.4,0-.2-.2-.4-.2-.6,0-.2,0-.4-.1-.6,0-.2,0-.4,0-.6v-1.1c0-.2,0-.4,0-.6,0-.2,0-.4.1-.6,0-.2.1-.4.2-.5,0-.2.2-.3.3-.5.1-.1.3-.2.5-.3.2,0,.4-.1.6-.1.3,0,.5,0,.7.1.2,0,.3.2.5.4.1.1.2.3.3.5,0,.2.1.4.2.6h1c0-.4-.1-.7-.3-1-.1-.3-.3-.6-.5-.8-.2-.2-.5-.4-.8-.5-.3-.1-.6-.2-1-.2-.3,0-.6,0-.8.1-.3,0-.5.2-.7.4-.2.2-.4.3-.5.6-.1.2-.3.4-.3.7,0,.3-.2.5-.2.8,0,.3,0,.6,0,.8v1.1c0,.3,0,.6,0,.9,0,.3.1.5.2.8,0,.3.2.5.3.7.1.2.3.4.5.5.2.2.4.3.7.4.3,0,.5.1.8.1s.7,0,1-.2c.3-.1.6-.3.8-.5.2-.2.4-.5.5-.7.1-.3.2-.6.3-1ZM396,117.5c.3,0,.5,0,.7-.1.2,0,.4-.2.5-.3.1-.1.3-.3.4-.5.1-.2.2-.3.3-.5l2.9-6.6h-1.1l-1.4,3.7-.3.7-.3-.7-1.6-3.7h-1.1l2.4,5.4-.4.8c0,0,0,.2-.2.3,0,.1-.1.2-.2.3,0,0-.2.2-.3.3-.1,0-.2.1-.4.1s-.1,0-.2,0c0,0-.2,0-.3,0l-.2.8c0,0,.2,0,.3,0,.1,0,.2,0,.3,0ZM404.3,114.5c-.3,0-.5,0-.8-.2-.2-.1-.4-.3-.5-.5-.1-.2-.2-.4-.3-.6,0-.2,0-.5,0-.7v-.2c0-.2,0-.5,0-.7,0-.2.1-.5.3-.7.1-.2.3-.3.5-.5.2-.1.5-.2.8-.2.2,0,.4,0,.5,0,.2,0,.3.2.4.3.1.1.2.3.3.4,0,.1.1.3.1.5h.9c0-.3,0-.6-.2-.8-.1-.3-.3-.5-.5-.7-.2-.2-.5-.3-.7-.4-.3-.1-.6-.2-.9-.2-.4,0-.8,0-1.1.2-.3.1-.6.3-.8.6-.2.3-.4.6-.5.9-.1.3-.2.7-.2,1.1v.2c0,.4,0,.7.2,1.1.1.3.3.6.5.9.2.3.5.5.8.6.3.2.7.2,1.1.2s.6,0,.9-.2c.3-.1.5-.3.7-.4.2-.2.4-.4.5-.6.1-.2.2-.5.2-.7h-.9c0,.2,0,.3-.1.4,0,.1-.2.2-.3.3-.1.1-.3.2-.4.2s-.3,0-.5,0ZM408.5,107.2v.8h1.9v6.4h-1.9v.8h4.7v-.8h-1.8v-7.2h-2.9ZM417.3,115.3c.5,0,1-.1,1.4-.3.4-.2.7-.5.8-.8l-.6-.5c-.2.2-.4.4-.7.6-.3.1-.6.2-.9.2s-.5,0-.7-.1c-.2-.1-.4-.2-.6-.4-.1-.2-.3-.3-.3-.5,0-.2-.1-.5-.2-.7h0s4,0,4,0v-.4c0-.4,0-.8-.2-1.1,0-.3-.2-.6-.4-.9-.2-.3-.5-.4-.8-.6-.3-.1-.7-.2-1.1-.2-.3,0-.6,0-1,.2-.3.1-.6.3-.8.6-.2.3-.4.6-.6.9-.1.4-.2.8-.2,1.2v.2c0,.4,0,.8.2,1.1.1.3.3.6.6.9.2.2.5.4.8.6s.7.2,1.1.2ZM417.1,110.2c.2,0,.5,0,.6.1.2,0,.3.2.5.3.1.1.2.3.3.5,0,.2.1.4.1.6h0s-3.1,0-3.1,0c0-.3.1-.5.2-.7.1-.2.2-.4.4-.5.1-.1.3-.2.5-.3.2,0,.4-.1.6-.1ZM424.7,112.2h0c0-.6,0-1.1-.1-1.5,0-.4-.2-.8-.3-1.2-.1-.4-.3-.7-.4-1-.2-.3-.3-.6-.5-.8-.2-.2-.4-.4-.6-.6-.2-.2-.4-.3-.5-.4l-.2.6c.1,0,.2.2.3.3.1.1.3.3.4.5.1.2.3.5.4.8.1.3.3.6.4,1,0,.3.1.6.2,1,0,.4,0,.8,0,1.3h0c0,.5,0,.9,0,1.2,0,.4-.1.7-.2,1,0,.3-.2.6-.3.9-.1.3-.2.5-.4.8-.1.2-.3.4-.4.6-.1.2-.3.3-.4.4l.2.6c.2,0,.3-.2.5-.4.2-.2.4-.4.6-.6.2-.2.4-.5.5-.8.2-.3.3-.7.5-1,.1-.4.2-.8.3-1.2,0-.4.1-.9.1-1.4Z"/>
      <path class="cls-5" d="M46,60.2h84.8v17H46v-17Z"/>
      <path class="cls-2" d="M58.3,84.2h1.3l3.7-11.9h-1.6l-2.6,8.8-.2.6-.2-.6-2.6-8.9h-1.6l3.7,11.9ZM71.2,84.2h1.6c0-.4-.2-.7-.2-1s0-.6,0-.9v-4.1c0-.5,0-.9-.3-1.3-.2-.4-.4-.7-.7-.9-.3-.2-.7-.4-1.1-.5s-.9-.2-1.4-.2-1,0-1.5.2c-.4.1-.8.3-1.1.6-.3.3-.5.5-.7.9-.2.3-.2.6-.2.9h1.5c0-.2,0-.4.1-.5,0-.2.2-.3.4-.4.2-.1.4-.2.6-.3.2,0,.5-.1.8-.1s.6,0,.9.1c.3,0,.5.2.7.3s.3.3.4.5c.1.2.2.4.2.7v.7h-1.6c-.6,0-1.2,0-1.7.2-.5.1-.9.3-1.3.5s-.6.5-.8.9c-.2.4-.3.8-.3,1.3s0,.7.2,1c.1.3.4.6.6.8.3.2.6.4.9.6.4.1.8.2,1.3.2s.5,0,.8,0c.3,0,.5-.1.7-.2.2-.1.4-.2.6-.3.2-.1.4-.3.5-.4,0,.2,0,.4,0,.5,0,.2,0,.3.1.4ZM68.5,83.1c-.3,0-.5,0-.8-.1-.2,0-.4-.2-.6-.3-.1-.1-.2-.3-.3-.5s-.1-.4-.1-.6,0-.4.1-.6.2-.3.4-.5c.2-.2.5-.3.9-.4.4,0,.8-.1,1.4-.1h1.4v1.8c0,.2-.2.3-.4.5-.1.2-.3.3-.5.4s-.4.2-.7.3c-.3,0-.5.1-.8.1ZM75.6,71.7v1.3h3v9.9h-3v1.3h7.4v-1.3h-2.9v-11.2h-4.5ZM85.6,75.4v1.3h3v6.2h-3v1.3h7.4v-1.3h-2.9v-7.5h-4.5ZM88.4,73.1c0,.2,0,.4.2.6.1.2.4.2.7.2s.5,0,.7-.2c.1-.2.2-.4.2-.6,0-.1,0-.3,0-.4,0-.1,0-.2-.2-.3,0,0-.2-.1-.3-.2-.1,0-.2,0-.4,0s-.3,0-.4,0c-.1,0-.2,0-.3.2,0,0-.1.2-.2.3,0,.1,0,.2,0,.4ZM95.1,79.8v.2c0,.6,0,1.2.3,1.8.2.5.4,1,.7,1.4.3.4.7.7,1.1.9.4.2.9.3,1.4.3s1,0,1.4-.3c.4-.2.8-.5,1.1-.8v.9h1.4v-12.5h-1.5v4.6c-.3-.3-.6-.6-1-.8-.4-.2-.8-.3-1.4-.3s-1,.1-1.4.3c-.4.2-.8.5-1.1.9-.3.4-.5.9-.7,1.4-.2.5-.3,1.1-.3,1.8ZM96.6,79.9v-.2c0-.4,0-.8.1-1.2,0-.4.2-.7.4-1,.2-.3.4-.5.7-.7.3-.2.7-.3,1.1-.3s.9.1,1.2.3c.3.2.6.5.8.9v4.1c-.2.4-.5.7-.8.9-.3.2-.7.3-1.2.3s-.8,0-1.1-.3c-.3-.2-.5-.4-.7-.7-.2-.3-.3-.6-.4-1,0-.4-.1-.8-.1-1.2Z"/>
      <path class="cls-5" d="M46,93.5h65.1v17H46v-17Z"/>
      <path class="cls-2" d="M55.3,117.6h2.7c.6,0,1.1,0,1.6-.2.5-.1.9-.3,1.3-.6.4-.2.7-.5,1-.8.3-.3.5-.7.7-1.1.2-.4.3-.8.4-1.3.1-.5.2-1,.2-1.5v-.9c0-.5,0-1.1-.2-1.5-.1-.5-.3-.9-.5-1.3-.2-.5-.5-.9-.9-1.3-.4-.4-.8-.7-1.3-.9-.4-.2-.7-.3-1.1-.4-.4,0-.8-.1-1.3-.2h-2.7v11.9ZM56.8,107h1.2c.4,0,.7,0,1,.1.3,0,.6.2.8.3.4.2.7.4.9.8.3.3.4.7.6,1,.1.3.2.6.3.9,0,.3,0,.7,0,1.1v.9c0,.4,0,.7,0,1s-.1.6-.2.9c-.1.4-.3.7-.5,1-.2.3-.5.5-.8.7-.3.2-.6.3-1,.4-.4.1-.7.2-1.2.2h-1.2v-9.4ZM71.2,117.6h1.6c0-.4-.2-.7-.2-1s0-.6,0-.9v-4.1c0-.5,0-.9-.3-1.3-.2-.4-.4-.7-.7-.9-.3-.2-.7-.4-1.1-.5-.4-.1-.9-.2-1.4-.2s-1,0-1.5.2c-.4.1-.8.3-1.1.6-.3.3-.5.5-.7.9-.2.3-.2.6-.2.9h1.5c0-.2,0-.4.1-.5,0-.2.2-.3.4-.4.2-.1.4-.2.6-.3.2,0,.5-.1.8-.1s.6,0,.9.1c.3,0,.5.2.7.3.2.1.3.3.4.5.1.2.2.4.2.7v.7h-1.6c-.6,0-1.2,0-1.7.2-.5.1-.9.3-1.3.5-.4.2-.6.5-.8.9-.2.4-.3.8-.3,1.3s0,.7.2,1c.1.3.4.6.6.8.3.2.6.4.9.6.4.1.8.2,1.3.2s.5,0,.8,0c.3,0,.5-.1.7-.2.2-.1.4-.2.6-.3.2-.1.4-.3.5-.4,0,.2,0,.4,0,.5,0,.2,0,.3.1.4ZM68.5,116.5c-.3,0-.5,0-.8-.1-.2,0-.4-.2-.6-.3-.1-.1-.2-.3-.3-.5s-.1-.4-.1-.6,0-.4.1-.6.2-.3.4-.5c.2-.2.5-.3.9-.4.4,0,.8-.1,1.4-.1h1.4v1.8c0,.2-.2.3-.4.5-.1.2-.3.3-.5.4s-.4.2-.7.3c-.3,0-.5.1-.8.1ZM78.9,106.7h-1.5v2.1h-2.3v1.2h2.3v4.8c0,.5,0,1,.2,1.4.1.4.3.7.6.9s.5.4.9.5c.3.1.7.2,1.1.2s.5,0,.7,0c.2,0,.5,0,.7,0,.2,0,.4,0,.6-.1.2,0,.3-.1.5-.2l-.2-1.1c0,0-.2,0-.4,0-.1,0-.3,0-.5,0s-.3,0-.5,0c-.2,0-.3,0-.5,0s-.4,0-.6,0c-.2,0-.4-.1-.5-.3-.2-.1-.3-.3-.4-.5s-.1-.5-.1-.9v-4.8h3.3v-1.2h-3.3v-2.1ZM91.1,117.6h1.6c0-.4-.2-.7-.2-1,0-.3,0-.6,0-.9v-4.1c0-.5,0-.9-.3-1.3-.2-.4-.4-.7-.7-.9-.3-.2-.7-.4-1.1-.5-.4-.1-.9-.2-1.4-.2s-1,0-1.5.2c-.4.1-.8.3-1.1.6-.3.3-.5.5-.7.9-.2.3-.2.6-.2.9h1.5c0-.2,0-.4.1-.5,0-.2.2-.3.4-.4.2-.1.4-.2.6-.3.2,0,.5-.1.8-.1s.6,0,.9.1c.3,0,.5.2.7.3.2.1.3.3.4.5.1.2.2.4.2.7v.7h-1.6c-.6,0-1.2,0-1.7.2-.5.1-.9.3-1.3.5-.4.2-.6.5-.8.9-.2.4-.3.8-.3,1.3,0,.4,0,.7.2,1,.1.3.4.6.6.8.3.2.6.4.9.6.4.1.8.2,1.3.2s.5,0,.8,0c.3,0,.5-.1.7-.2.2-.1.4-.2.6-.3.2-.1.4-.3.5-.4,0,.2,0,.4,0,.5,0,.2,0,.3.1.4ZM88.5,116.5c-.3,0-.5,0-.8-.1-.2,0-.4-.2-.6-.3-.1-.1-.2-.3-.3-.5,0-.2-.1-.4-.1-.6,0-.2,0-.4.1-.6,0-.2.2-.3.4-.5.2-.2.5-.3.9-.4.4,0,.8-.1,1.4-.1h1.4v1.8c0,.2-.2.3-.4.5-.1.2-.3.3-.5.4-.2.1-.4.2-.7.3-.3,0-.5.1-.8.1Z"/>
      <path class="cls-5" d="M46,125.6h84.8v17H46v-17Z"/>
      <path class="cls-2" d="M57.1,144.9h2.3c.5,0,1,0,1.5-.3s.9-.4,1.2-.7c.4-.3.6-.7.8-1.1.2-.4.3-.9.3-1.5s-.1-1.1-.3-1.5c-.2-.4-.5-.8-.8-1.1-.4-.3-.8-.5-1.2-.7s-1-.2-1.5-.3h-3.8v11.9h1.5v-4.7ZM57.1,143.7v-4.6h2.3c.3,0,.7,0,.9.2.3.1.6.3.8.5.2.2.4.5.5.7.1.3.2.6.2,1s0,.7-.2,1c-.1.3-.3.5-.5.7-.2.2-.5.3-.8.4-.3.1-.6.2-.9.2h-2.3ZM71.2,149.7h1.6c0-.4-.2-.7-.2-1s0-.6,0-.9v-4.1c0-.5,0-.9-.3-1.3-.2-.4-.4-.7-.7-.9-.3-.2-.7-.4-1.1-.5s-.9-.2-1.4-.2-1,0-1.5.2c-.4.1-.8.3-1.1.6-.3.3-.5.5-.7.9-.2.3-.2.6-.2.9h1.5c0-.2,0-.4.1-.5,0-.2.2-.3.4-.4.2-.1.4-.2.6-.3.2,0,.5-.1.8-.1s.6,0,.9.1c.3,0,.5.2.7.3s.3.3.4.5c.1.2.2.4.2.7v.7h-1.6c-.6,0-1.2,0-1.7.2-.5.1-.9.3-1.3.5s-.6.5-.8.9c-.2.4-.3.8-.3,1.3s0,.7.2,1c.1.3.4.6.6.8.3.2.6.4.9.6.4.1.8.2,1.3.2s.5,0,.8,0c.3,0,.5-.1.7-.2.2-.1.4-.2.6-.3.2-.1.4-.3.5-.4,0,.2,0,.4,0,.5,0,.2,0,.3.1.4ZM68.5,148.5c-.3,0-.5,0-.8-.1-.2,0-.4-.2-.6-.3-.1-.1-.2-.3-.3-.5s-.1-.4-.1-.6,0-.4.1-.6.2-.3.4-.5c.2-.2.5-.3.9-.4.4,0,.8-.1,1.4-.1h1.4v1.8c0,.2-.2.3-.4.5-.1.2-.3.3-.5.4s-.4.2-.7.3c-.3,0-.5.1-.8.1ZM81.1,140.7c-.6,0-1.2.1-1.7.4s-.9.7-1.3,1.1v-.2s0-1.2,0-1.2h-1.4v8.8h1.5v-5.7c.1-.3.2-.5.4-.7.1-.2.3-.4.5-.6.2-.2.5-.3.8-.4.3,0,.6-.1,1-.1s.6,0,.8,0c.3,0,.5,0,.8.1l.2-1.5c-.2,0-.4-.1-.7-.2-.3,0-.6,0-.9,0ZM89.2,149.8c.9,0,1.6-.2,2.2-.5.6-.3,1-.7,1.3-1.2l-.9-.7c-.3.4-.6.6-1,.9-.4.2-.9.3-1.4.3s-.8,0-1.1-.2c-.3-.2-.6-.4-.9-.6-.2-.2-.4-.5-.5-.9-.1-.3-.2-.7-.3-1.1h0c0,0,6.3,0,6.3,0v-.7c0-.6,0-1.2-.2-1.7-.1-.5-.4-1-.7-1.4-.3-.4-.7-.7-1.2-.9-.5-.2-1-.3-1.7-.3s-1,.1-1.5.3c-.5.2-.9.5-1.3.9-.4.4-.7.9-.9,1.4-.2.6-.3,1.2-.3,1.9v.3c0,.6.1,1.2.3,1.7.2.5.5,1,.9,1.3.4.4.8.7,1.3.9.5.2,1.1.3,1.7.3ZM89.1,141.9c.4,0,.7,0,1,.2.3.1.5.3.7.6.2.2.3.5.4.8.1.3.2.6.2.9h0c0,0-4.7,0-4.7,0,0-.4.2-.8.3-1.1.2-.3.3-.6.6-.8.2-.2.5-.4.7-.5.3-.1.6-.2.9-.2ZM95.3,149.7h1.5v-6.3c.1-.2.2-.4.4-.5s.3-.3.5-.4c.2-.1.4-.2.6-.3.2,0,.5-.1.8-.1s.6,0,.8.1c.3,0,.5.2.6.4.2.2.3.4.4.7,0,.3.1.6.1,1v5.6h1.5v-5.6c0-.6,0-1.1-.2-1.5-.1-.4-.3-.8-.6-1.1-.3-.3-.6-.5-1-.6-.4-.1-.8-.2-1.3-.2s-.7,0-1,.2c-.3,0-.6.2-.8.4-.2.1-.3.2-.5.4-.1.2-.3.3-.4.5v-1.3h-1.5v8.8ZM108.9,138.7h-1.5v2.1h-2.3v1.2h2.3v4.8c0,.5,0,1,.2,1.4.1.4.3.7.6.9s.5.4.9.5c.3.1.7.2,1.1.2s.5,0,.7,0c.2,0,.5,0,.7,0,.2,0,.4,0,.6-.1s.3-.1.5-.2l-.2-1.1c0,0-.2,0-.4,0-.1,0-.3,0-.5,0s-.3,0-.5,0c-.2,0-.3,0-.5,0s-.4,0-.6,0c-.2,0-.4-.1-.5-.3-.2-.1-.3-.3-.4-.5s-.1-.5-.1-.9v-4.8h3.3v-1.2h-3.3v-2.1Z"/>
      <path class="cls-5" d="M107.7,80.9l36.8,18.6"/>
      <path class="cls-8" d="M107.7,80.9l27.3,13.7"/>
      <path class="cls-1" d="M133.7,97.2l8.6,1-5.9-6.3-2.6,5.3Z"/>
      <path class="cls-5" d="M100.5,111.2h44.4"/>
      <path class="cls-8" d="M100.5,111.2h33.7"/>
      <path class="cls-1" d="M134.2,114.1l8.1-3-8.1-3v5.9Z"/>
      <path class="cls-5" d="M118.4,144.2l25.7-18.4"/>
      <path class="cls-8" d="M118.4,144.2l17-12.2"/>
      <path class="cls-1" d="M137.1,134.4l4.9-7.1-8.3,2.3,3.4,4.8Z"/>
      <path class="cls-5" d="M439.2,111.1h64.4v-41.8h0"/>
      <path class="cls-8" d="M439.2,111.1h64.4v-35.7"/>
      <path class="cls-1" d="M503.6,75.4l2,2-2-5.5-2,5.5,2-2Z"/>
      <path class="cls-5" d="M474.1,31.7h229.4v37.6h-229.4V31.7Z"/>
      <path class="cls-5" d="M450.3,38.5h146.6v17h-146.6v-17Z"/>
      <path class="cls-2" d="M459.7,62.6v-11.9h3.3c1,0,1.9.2,2.7.7.8.5,1.4,1.1,1.8,2,.4.8.7,1.8.7,2.9v.8c0,1.1-.2,2.1-.6,2.9-.4.8-1,1.5-1.8,1.9-.8.4-1.7.7-2.8.7h-3.3ZM461.2,52v9.3h1.6c1.2,0,2.1-.4,2.8-1.1.7-.7,1-1.8,1-3.2v-.7c0-1.3-.3-2.4-.9-3.1-.6-.8-1.5-1.1-2.7-1.1h-1.8ZM472.1,58v4.6h-1.5v-11.9h4.4c1.3,0,2.3.3,3,1,.7.7,1.1,1.5,1.1,2.6s-.4,2-1.1,2.7c-.7.6-1.7.9-3.1.9h-2.8ZM472.1,56.7h2.8c.8,0,1.5-.2,1.9-.6s.7-1,.7-1.7-.2-1.3-.7-1.7c-.4-.4-1.1-.7-1.8-.7h-2.9v4.7ZM482.7,62.6h-1.6v-11.9h1.6v11.9ZM488.5,58.2h-4v-1.2h4v1.2ZM498.9,58.8c-.1,1.2-.6,2.2-1.4,2.9-.8.7-1.8,1-3.1,1s-2.5-.5-3.4-1.5-1.3-2.4-1.3-4v-1.1c0-1.1.2-2.1.6-2.9.4-.8,1-1.5,1.7-1.9.7-.5,1.6-.7,2.5-.7s2.3.4,3,1.1c.8.7,1.2,1.7,1.3,2.9h-1.6c-.1-.9-.4-1.6-.9-2-.5-.4-1.1-.6-1.9-.6s-1.8.4-2.3,1.1c-.6.7-.8,1.8-.8,3.2v1.1c0,1.3.3,2.3.8,3.1.5.8,1.3,1.1,2.3,1.1s1.5-.2,2-.6.8-1.1.9-2.1h1.6ZM501.1,63.6h-1.3l4.9-12.9h1.3l-4.9,12.9ZM512.7,60.3c0-.4-.2-.7-.5-.9-.3-.2-.8-.4-1.6-.6-.8-.2-1.4-.4-1.8-.6-.4-.2-.8-.5-1-.8-.2-.3-.3-.7-.3-1.1,0-.7.3-1.3.9-1.8.6-.5,1.4-.8,2.3-.8s1.8.3,2.4.8c.6.5.9,1.2.9,2h-1.5c0-.4-.2-.8-.5-1.1-.4-.3-.8-.4-1.3-.4s-1,.1-1.3.4c-.3.2-.5.5-.5.9,0,.4.1.6.4.8.3.2.8.4,1.5.5.8.2,1.4.4,1.8.6.5.2.8.5,1,.8.2.3.3.7.3,1.2,0,.8-.3,1.4-.9,1.9-.6.5-1.4.7-2.4.7s-1.3-.1-1.9-.4c-.5-.3-1-.6-1.3-1-.3-.4-.5-.9-.5-1.5h1.5c0,.5.2.9.6,1.2.4.3.9.4,1.5.4s1-.1,1.4-.3c.3-.2.5-.5.5-.9ZM518.2,51.7v2.1h1.6v1.2h-1.6v5.5c0,.4,0,.6.2.8.1.2.4.3.8.3s.4,0,.7,0v1.2c-.4.1-.8.2-1.2.2-.7,0-1.2-.2-1.5-.6-.3-.4-.5-1-.5-1.7v-5.5h-1.6v-1.2h1.6v-2.1h1.5ZM521.3,58.1c0-1.4.3-2.4,1-3.3.6-.8,1.5-1.2,2.5-1.2s1.8.3,2.5,1v-4.6h1.5v12.5h-1.4v-.9c-.7.7-1.5,1.1-2.6,1.1s-1.8-.4-2.5-1.3c-.6-.8-1-1.9-1-3.3h0ZM522.8,58.3c0,1,.2,1.8.6,2.3.4.6,1,.8,1.7.8s1.7-.4,2.1-1.3v-4.1c-.5-.8-1.1-1.2-2.1-1.2s-1.3.3-1.7.9c-.4.6-.6,1.4-.6,2.5ZM530.6,58.1c0-.9.2-1.6.5-2.3.3-.7.8-1.2,1.4-1.6.6-.4,1.3-.6,2.1-.6,1.2,0,2.2.4,2.9,1.2.7.8,1.1,1.9,1.1,3.3h0c0,1-.2,1.7-.5,2.4-.3.7-.8,1.2-1.4,1.6-.6.4-1.3.6-2.1.6-1.2,0-2.2-.4-2.9-1.2-.7-.8-1.1-1.9-1.1-3.3h0ZM532.1,58.3c0,1,.2,1.8.7,2.4.5.6,1.1.9,1.8.9s1.4-.3,1.8-.9c.4-.6.7-1.4.7-2.5,0-1-.2-1.8-.7-2.3-.5-.6-1.1-.9-1.8-.9s-1.3.3-1.8.9c-.5.6-.7,1.4-.7,2.5ZM545.9,61.7c-.6.7-1.4,1-2.6,1s-1.7-.3-2.1-.8c-.5-.5-.7-1.4-.7-2.4v-5.7h1.5v5.7c0,1.3.5,2,1.6,2s1.9-.4,2.3-1.3v-6.4h1.5v8.8h-1.4v-.9ZM551.7,51.7v2.1h1.6v1.2h-1.6v5.5c0,.4,0,.6.2.8.1.2.4.3.8.3s.4,0,.7,0v1.2c-.4.1-.8.2-1.2.2-.7,0-1.2-.2-1.5-.6-.3-.4-.5-1-.5-1.7v-5.5h-1.6v-1.2h1.6v-2.1h1.5Z"/>
      <path class="cls-5" d="M58.1,19.7h263.6v26.1H58.1v-26.1Z"/>
      <path class="cls-2" d="M78.8,45.4c-.5.6-1.3,1.1-2.3,1.5-1,.4-2,.5-3.2.5s-2.3-.3-3.3-.8c-.9-.5-1.6-1.3-2.2-2.4-.5-1-.8-2.2-.8-3.6v-1c0-1.4.2-2.7.7-3.7.5-1.1,1.2-1.9,2.1-2.4.9-.6,2-.8,3.2-.8s3,.4,4,1.2c1,.8,1.5,2,1.7,3.5h-2.9c-.1-.8-.4-1.4-.9-1.8-.4-.4-1.1-.6-1.9-.6s-1.8.4-2.3,1.1c-.5.8-.8,1.9-.8,3.4v.9c0,1.5.3,2.6.9,3.4.6.8,1.4,1.2,2.5,1.2s1.9-.2,2.4-.7v-2.5h-2.7v-2.2h5.7v5.8ZM85.9,47.4c-1.6,0-2.8-.5-3.8-1.4-1-1-1.5-2.3-1.5-3.9v-.3c0-1.1.2-2,.6-2.9.4-.8,1-1.5,1.8-2,.8-.5,1.6-.7,2.6-.7,1.5,0,2.6.5,3.4,1.4s1.3,2.2,1.3,3.9v1.2h-6.8c0,.7.4,1.3.8,1.7.5.4,1.1.6,1.8.6,1.1,0,2-.4,2.6-1.2l1.4,1.6c-.4.6-1,1.1-1.7,1.4-.7.3-1.5.5-2.4.5ZM85.6,38.6c-.6,0-1,.2-1.4.6-.4.4-.6.9-.7,1.6h4v-.2c0-.6-.2-1.1-.5-1.5-.3-.4-.8-.5-1.4-.5ZM94.5,36.5v1.2c.8-.9,1.9-1.4,3.1-1.4s2,.3,2.5,1c.6.7.8,1.7.9,3v6.9h-2.9v-6.8c0-.6-.1-1-.4-1.3-.3-.3-.7-.4-1.3-.4s-1.4.3-1.8,1v7.5h-2.9v-10.7h2.7ZM112.1,40.9h-5.7v3.9h6.7v2.4h-9.6v-14.4h9.6v2.4h-6.7v3.4h5.7v2.3ZM118.3,43.7l2-7.2h3l-3.6,10.7h-2.7l-3.6-10.7h3l2,7.2ZM129.3,47.4c-1.6,0-2.8-.5-3.8-1.4-1-1-1.5-2.3-1.5-3.9v-.3c0-1.1.2-2,.6-2.9.4-.8,1-1.5,1.8-2,.8-.5,1.6-.7,2.6-.7,1.5,0,2.6.5,3.4,1.4s1.3,2.2,1.3,3.9v1.2h-6.8c0,.7.4,1.3.8,1.7.5.4,1.1.6,1.8.6,1.1,0,2-.4,2.6-1.2l1.4,1.6c-.4.6-1,1.1-1.7,1.4-.7.3-1.5.5-2.4.5ZM129,38.6c-.6,0-1,.2-1.4.6-.4.4-.6.9-.7,1.6h4v-.2c0-.6-.2-1.1-.5-1.5-.3-.4-.8-.5-1.4-.5ZM138,36.5v1.2c.8-.9,1.9-1.4,3.1-1.4s2,.3,2.5,1c.6.7.8,1.7.9,3v6.9h-2.9v-6.8c0-.6-.1-1-.4-1.3-.3-.3-.7-.4-1.3-.4s-1.4.3-1.8,1v7.5h-2.9v-10.7h2.7ZM150.1,33.9v2.6h1.8v2.1h-1.8v5.3c0,.4,0,.7.2.9.1.2.4.3.9.3s.6,0,.8,0v2.2c-.6.2-1.1.3-1.7.3-2,0-3-1-3.1-3v-5.8h-1.6v-2.1h1.6v-2.6h2.9Z"/>
      <path class="cls-2" d="M158.1,51.2h-1.8c-.9-1.4-1.7-2.9-2.2-4.5-.5-1.5-.7-3-.7-4.5s.3-3.5.9-5.1c.5-1.4,1.2-2.7,2-3.9h1.8c-.9,1.9-1.4,3.5-1.8,4.8-.3,1.3-.5,2.7-.5,4.2s0,2.1.3,3.1c.2,1.1.4,2.1.8,3,.2.6.6,1.5,1.1,2.7ZM159.4,51.2c.5-1.1.9-1.9,1.1-2.5.2-.6.4-1.3.6-2,.2-.8.3-1.5.4-2.2,0-.7.1-1.4.1-2.1,0-1.5-.2-2.9-.5-4.2-.3-1.3-.9-2.9-1.7-4.8h1.8c.9,1.3,1.7,2.8,2.2,4.3.5,1.5.8,3,.8,4.5s-.2,2.7-.6,4.2c-.5,1.7-1.2,3.3-2.3,4.9h-1.8Z"/>
      <path class="cls-5" d="M308.3,282.8l-.3-148.1"/>
      <path class="cls-8" d="M308.3,282.8l-.3-142"/>
      <path class="cls-1" d="M308,140.9l2,2-2-5.5-2,5.5,2-2Z"/>
      <path class="cls-5" d="M227.2,260.3l30.9,13.3"/>
      <path class="cls-8" d="M227.2,260.3l25.3,10.8"/>
      <path class="cls-1" d="M252.4,271.2l-2.6,1.1,5.9.3-4.3-4,1.1,2.6Z"/>
    </g>
  </g>
</svg>