<svg version="1.1" viewBox="0.0 0.0 960.0 720.0" fill="none" stroke="none" stroke-linecap="square" stroke-miterlimit="10" xmlns:xlink="http://www.w3.org/1999/xlink" xmlns="http://www.w3.org/2000/svg"><clipPath id="p.0"><path d="m0 0l960.0 0l0 720.0l-960.0 0l0 -720.0z" clip-rule="nonzero"/></clipPath><g clip-path="url(#p.0)"><path fill="#000000" fill-opacity="0.0" d="m0 0l960.0 0l0 720.0l-960.0 0z" fill-rule="evenodd"/><path fill="#d9d2e9" d="m194.78215 208.50528l0 0c0 -37.034256 30.022202 -67.05646 67.05647 -67.05646l327.33588 0c17.784485 0 34.840576 7.06485 47.416077 19.64038c12.575562 12.575531 19.64038 29.631592 19.64038 47.416077l0 268.2178c0 37.03424 -30.022156 67.05646 -67.05646 67.05646l-327.33588 0c-37.03427 0 -67.05647 -30.022217 -67.05647 -67.05646z" fill-rule="evenodd"/><path stroke="#595959" stroke-width="2.0" stroke-linejoin="round" stroke-linecap="butt" d="m194.78215 208.50528l0 0c0 -37.034256 30.022202 -67.05646 67.05647 -67.05646l327.33588 0c17.784485 0 34.840576 7.06485 47.416077 19.64038c12.575562 12.575531 19.64038 29.631592 19.64038 47.416077l0 268.2178c0 37.03424 -30.022156 67.05646 -67.05646 67.05646l-327.33588 0c-37.03427 0 -67.05647 -30.022217 -67.05647 -67.05646z" fill-rule="evenodd"/><path fill="#000000" fill-opacity="0.0" d="m504.0866 425.75854l148.75592 0l0 37.95273l-148.75592 0z" fill-rule="evenodd"/><path fill="#595959" d="m539.97235 445.35678l0 -1.53125l-5.9375 0l0 -4.5625l6.84375 0l0 -1.546875l-8.640625 0l0 14.21875l8.734375 0l0 -1.53125l-6.9375 0l0 -5.046875l5.9375 0zm7.783203 6.578125l1.390625 0l4.296875 -10.5625l-1.84375 0l-2.953125 7.96875l-0.1875 0.65625l-0.15625 -0.65625l-3.03125 -7.96875l-1.859375 0l4.34375 10.5625zm13.080078 0.203125q1.53125 0 2.578125 -0.625q1.0625 -0.625 1.578125 -1.421875l-1.09375 -0.859375q-0.5 0.640625 -1.25 1.03125q-0.75 0.390625 -1.71875 0.390625q-0.734375 0 -1.34375 -0.265625q-0.609375 -0.28125 -1.03125 -0.765625q-0.421875 -0.4375 -0.671875 -1.015625q-0.234375 -0.59375 -0.296875 -1.375l0 -0.0625l7.546875 0l0 -0.8125q0 -1.109375 -0.28125 -2.046875q-0.265625 -0.953125 -0.84375 -1.65625q-0.5625 -0.6875 -1.421875 -1.078125q-0.84375 -0.40625 -1.984375 -0.40625q-0.921875 0 -1.78125 0.375q-0.859375 0.375 -1.53125 1.0625q-0.6875 0.703125 -1.109375 1.71875q-0.40625 1.0 -0.40625 2.28125l0 0.421875q0 1.09375 0.375 2.03125q0.375 0.9375 1.03125 1.625q0.671875 0.6875 1.59375 1.078125q0.9375 0.375 2.0625 0.375zm-0.234375 -9.484375q0.6875 0 1.1875 0.265625q0.5 0.25 0.84375 0.65625q0.328125 0.40625 0.515625 0.96875q0.1875 0.5625 0.1875 1.046875l0 0.09375l-5.6875 0q0.109375 -0.734375 0.375 -1.296875q0.265625 -0.5625 0.65625 -0.953125q0.390625 -0.375 0.875 -0.578125q0.5 -0.203125 1.046875 -0.203125zm7.564453 9.28125l1.796875 0l0 -7.578125q0.1875 -0.34375 0.4375 -0.625q0.25 -0.28125 0.546875 -0.5q0.359375 -0.25 0.78125 -0.390625q0.4375 -0.140625 0.9375 -0.140625q0.578125 0 1.015625 0.140625q0.453125 0.140625 0.765625 0.4375q0.296875 0.3125 0.453125 0.796875q0.15625 0.484375 0.15625 1.1875l0 6.671875l1.8125 0l0 -6.703125q0 -1.0625 -0.265625 -1.828125q-0.25 -0.765625 -0.734375 -1.265625q-0.484375 -0.5 -1.171875 -0.734375q-0.671875 -0.234375 -1.5 -0.234375q-0.609375 0.015625 -1.171875 0.1875q-0.546875 0.171875 -1.015625 0.484375q-0.3125 0.203125 -0.59375 0.484375q-0.265625 0.265625 -0.5 0.609375l-0.125 -1.5625l-1.625 0l0 10.5625zm16.283203 -13.125l-1.828125 0l0 2.5625l-2.765625 0l0 1.390625l2.765625 0l0 5.75q0 0.96875 0.25 1.65625q0.265625 0.6875 0.71875 1.125q0.453125 0.4375 1.0625 0.640625q0.609375 0.203125 1.3125 0.203125q0.421875 0 0.84375 -0.046875q0.421875 -0.03125 0.8125 -0.109375q0.375 -0.078125 0.6875 -0.171875q0.328125 -0.109375 0.5625 -0.25l-0.265625 -1.28125q-0.15625 0.046875 -0.421875 0.109375q-0.25 0.046875 -0.546875 0.09375q-0.296875 0.046875 -0.609375 0.078125q-0.3125 0.03125 -0.609375 0.03125q-0.40625 0 -0.765625 -0.09375q-0.34375 -0.09375 -0.625 -0.34375q-0.265625 -0.234375 -0.421875 -0.625q-0.15625 -0.40625 -0.15625 -1.015625l0 -5.75l4.015625 0l0 -1.390625l-4.015625 0l0 -2.5625zm19.722656 -1.09375l0 1.578125l3.328125 0l0 11.078125l-3.328125 0l0 1.5625l8.59375 0l0 -1.5625l-3.40625 0l0 -11.078125l3.40625 0l0 -1.578125l-8.59375 0zm11.814453 14.21875l3.296875 0q1.015625 -0.015625 1.890625 -0.25q0.890625 -0.234375 1.59375 -0.671875q0.671875 -0.421875 1.203125 -1.015625q0.546875 -0.59375 0.890625 -1.328125q0.34375 -0.703125 0.515625 -1.53125q0.1875 -0.84375 0.1875 -1.78125l0 -1.046875q-0.015625 -0.984375 -0.203125 -1.84375q-0.1875 -0.859375 -0.546875 -1.578125q-0.40625 -0.84375 -1.078125 -1.484375q-0.65625 -0.65625 -1.53125 -1.0625q-0.625 -0.296875 -1.359375 -0.453125q-0.734375 -0.15625 -1.5625 -0.171875l-3.296875 0l0 14.21875zm1.828125 -12.734375l1.46875 0q0.671875 0.015625 1.234375 0.15625q0.5625 0.140625 1.03125 0.390625q0.640625 0.34375 1.078125 0.890625q0.453125 0.546875 0.71875 1.234375q0.203125 0.53125 0.296875 1.140625q0.109375 0.609375 0.109375 1.28125l0 1.0625q0 0.65625 -0.109375 1.25q-0.09375 0.59375 -0.28125 1.125q-0.234375 0.625 -0.625 1.140625q-0.375 0.515625 -0.90625 0.859375q-0.5 0.34375 -1.140625 0.53125q-0.625 0.1875 -1.40625 0.203125l-1.46875 0l0 -11.265625z" fill-rule="nonzero"/><path fill="#cfe2f3" d="m206.5433 399.0829l0 0c0 -5.543274 4.493698 -10.036957 10.036942 -10.036957l171.39067 0c2.6619873 0 5.214905 1.0574646 7.0971985 2.9397583c1.8822937 1.8822937 2.9397583 4.4352417 2.9397583 7.0971985l0 40.146576c0 5.5432434 -4.493683 10.036957 -10.036957 10.036957l-171.39067 0c-5.5432434 0 -10.036942 -4.4937134 -10.036942 -10.036957z" fill-rule="evenodd"/><path stroke="#595959" stroke-width="2.0" stroke-linejoin="round" stroke-linecap="butt" d="m206.5433 399.0829l0 0c0 -5.543274 4.493698 -10.036957 10.036942 -10.036957l171.39067 0c2.6619873 0 5.214905 1.0574646 7.0971985 2.9397583c1.8822937 1.8822937 2.9397583 4.4352417 2.9397583 7.0971985l0 40.146576c0 5.5432434 -4.493683 10.036957 -10.036957 10.036957l-171.39067 0c-5.5432434 0 -10.036942 -4.4937134 -10.036942 -10.036957z" fill-rule="evenodd"/><path fill="#000000" d="m251.37451 426.29492q-2.734375 0 -4.5625 -1.796875q-1.828125 -1.8125 -1.828125 -4.640625q0 -2.8125 1.828125 -4.625q1.828125 -1.8125 4.5625 -1.8125q2.96875 0 4.734375 2.46875l-1.3125 0.734375q-0.546875 -0.796875 -1.453125 -1.296875q-0.90625 -0.515625 -1.96875 -0.515625q-2.0625 0 -3.421875 1.4375q-1.359375 1.4375 -1.359375 3.609375q0 2.203125 1.34375 3.640625q1.359375 1.421875 3.4375 1.421875q1.0625 0 1.96875 -0.5q0.90625 -0.515625 1.453125 -1.3125l1.328125 0.734375q-1.8125 2.453125 -4.75 2.453125zm6.3928833 2.03125q0.296875 0.15625 0.765625 0.15625q0.453125 0 0.765625 -0.203125q0.328125 -0.1875 0.578125 -0.75l0.59375 -1.359375l-3.765625 -9.109375l1.5 0l3.015625 7.390625l2.984375 -7.390625l1.515625 0l-4.5 10.84375q-0.75 1.796875 -2.65625 1.828125q-0.546875 0 -1.03125 -0.125l0.234375 -1.28125zm13.391571 -2.03125q-1.984375 0 -3.25 -1.34375q-1.25 -1.34375 -1.25 -3.390625q0 -2.03125 1.25 -3.375q1.265625 -1.34375 3.25 -1.34375q2.09375 0 3.296875 1.5625l-0.921875 0.859375q-0.859375 -1.171875 -2.296875 -1.171875q-1.390625 0 -2.265625 0.96875q-0.859375 0.953125 -0.859375 2.5q0 1.5625 0.859375 2.53125q0.859375 0.953125 2.265625 0.953125q1.40625 0 2.296875 -1.171875l0.921875 0.859375q-1.203125 1.5625 -3.296875 1.5625zm5.266083 -0.21875l0 -12.4375l1.390625 0l0 12.4375l-1.390625 0zm8.260162 0.21875q-2.03125 0 -3.3125 -1.3125q-1.28125 -1.328125 -1.28125 -3.421875q0 -2.0 1.265625 -3.359375q1.28125 -1.359375 3.171875 -1.359375q1.9375 0 3.125 1.34375q1.203125 1.34375 1.203125 3.484375l0 0.359375l-7.296875 0q0.078125 1.375 1.0 2.25q0.921875 0.859375 2.25 0.859375q1.640625 0 2.78125 -1.140625l0.671875 0.921875q-1.375 1.375 -3.578125 1.375zm2.796875 -5.296875q0 -1.25 -0.828125 -2.125q-0.8125 -0.875 -2.140625 -0.875q-1.25 0 -2.078125 0.875q-0.828125 0.875 -0.875 2.125l5.921875 0zm14.394897 5.296875q-2.734375 0 -4.5625 -1.796875q-1.828125 -1.8125 -1.828125 -4.640625q0 -2.8125 1.828125 -4.625q1.828125 -1.8125 4.5625 -1.8125q2.96875 0 4.734375 2.46875l-1.3125 0.734375q-0.546875 -0.796875 -1.453125 -1.296875q-0.90625 -0.515625 -1.96875 -0.515625q-2.0625 0 -3.421875 1.4375q-1.359375 1.4375 -1.359375 3.609375q0 2.203125 1.34375 3.640625q1.359375 1.421875 3.4375 1.421875q1.0625 0 1.96875 -0.5q0.90625 -0.515625 1.453125 -1.3125l1.328125 0.734375q-1.8125 2.453125 -4.75 2.453125zm10.596008 0q-1.953125 0 -3.203125 -1.328125q-1.25 -1.328125 -1.25 -3.40625q0 -2.09375 1.25 -3.40625q1.25 -1.3125 3.203125 -1.3125q1.96875 0 3.21875 1.3125q1.25 1.3125 1.25 3.40625q0 2.078125 -1.25 3.40625q-1.25 1.328125 -3.21875 1.328125zm0 -1.25q1.3125 0 2.15625 -0.96875q0.84375 -0.984375 0.84375 -2.515625q0 -1.515625 -0.84375 -2.484375q-0.84375 -0.984375 -2.15625 -0.984375q-1.296875 0 -2.15625 0.96875q-0.84375 0.96875 -0.84375 2.5q0 1.546875 0.84375 2.515625q0.84375 0.96875 2.15625 0.96875zm12.827637 1.03125l0 -1.265625q-0.53125 0.59375 -1.375 1.046875q-0.828125 0.4375 -1.84375 0.4375q-2.859375 0 -2.859375 -2.875l0 -6.359375l1.390625 0l0 5.9375q0 1.0625 0.484375 1.5625q0.484375 0.484375 1.53125 0.484375q0.828125 0 1.546875 -0.40625q0.734375 -0.40625 1.125 -0.953125l0 -6.625l1.390625 0l0 9.015625l-1.390625 0zm10.279602 0l0 -5.890625q0 -1.203125 -0.5625 -1.640625q-0.546875 -0.453125 -1.453125 -0.453125q-0.78125 0 -1.546875 0.421875q-0.75 0.421875 -1.125 0.984375l0 6.578125l-1.390625 0l0 -9.015625l1.390625 0l0 1.3125q0.578125 -0.671875 1.421875 -1.09375q0.859375 -0.4375 1.78125 -0.4375q2.875 0 2.875 2.90625l0 6.328125l-1.390625 0zm6.467102 0.21875q-2.0 0 -2.0 -2.109375l0 -5.890625l-1.484375 0l0 -1.234375l1.484375 0l0 -2.453125l1.40625 0l0 2.453125l1.828125 0l0 1.234375l-1.828125 0l0 5.59375q0 0.515625 0.21875 0.84375q0.234375 0.3125 0.703125 0.3125q0.578125 0 0.9375 -0.375l0.421875 1.046875q-0.578125 0.578125 -1.6875 0.578125zm7.2817993 0q-2.03125 0 -3.3125 -1.3125q-1.28125 -1.328125 -1.28125 -3.421875q0 -2.0 1.265625 -3.359375q1.28125 -1.359375 3.171875 -1.359375q1.9375 0 3.125 1.34375q1.203125 1.34375 1.203125 3.484375l0 0.359375l-7.296875 0q0.078125 1.375 1.0 2.25q0.921875 0.859375 2.25 0.859375q1.640625 0 2.78125 -1.140625l0.671875 0.921875q-1.375 1.375 -3.578125 1.375zm2.796875 -5.296875q0 -1.25 -0.828125 -2.125q-0.8125 -0.875 -2.140625 -0.875q-1.25 0 -2.078125 0.875q-0.828125 0.875 -0.875 2.125l5.921875 0zm3.644104 5.078125l0 -9.015625l1.390625 0l0 1.453125q1.25 -1.640625 3.0 -1.640625l0 1.4375l-0.546875 -0.046875q-0.640625 0 -1.40625 0.453125q-0.765625 0.453125 -1.046875 0.984375l0 6.375l-1.390625 0z" fill-rule="nonzero"/><path fill="#cfe2f3" d="m206.54462 468.92007l0 0c0 -3.4935303 2.8320618 -6.325592 6.325592 -6.325592l178.81339 0c1.6776428 0 3.2865906 0.6664429 4.47287 1.8527222c1.1862793 1.1862793 1.8527222 2.795227 1.8527222 4.47287l0 25.301575c0 3.4935303 -2.8320618 6.325592 -6.325592 6.325592l-178.81339 0l0 0c-3.4935303 0 -6.325592 -2.8320618 -6.325592 -6.325592z" fill-rule="evenodd"/><path stroke="#595959" stroke-width="2.0" stroke-linejoin="round" stroke-linecap="butt" d="m206.54462 468.92007l0 0c0 -3.4935303 2.8320618 -6.325592 6.325592 -6.325592l178.81339 0c1.6776428 0 3.2865906 0.6664429 4.47287 1.8527222c1.1862793 1.1862793 1.8527222 2.795227 1.8527222 4.47287l0 25.301575c0 3.4935303 -2.8320618 6.325592 -6.325592 6.325592l-178.81339 0l0 0c-3.4935303 0 -6.325592 -2.8320618 -6.325592 -6.325592z" fill-rule="evenodd"/><path fill="#000000" d="m258.3999 488.74088q-2.7343597 0 -4.5624847 -1.84375q-1.828125 -1.84375 -1.828125 -4.625q0 -2.8125 1.828125 -4.625q1.84375 -1.8125 4.5624847 -1.8125q2.9375 0 4.84375 2.34375l-1.234375 0.765625q-0.59375 -0.765625 -1.546875 -1.234375q-0.9375 -0.484375 -2.0625 -0.484375q-2.0625 0 -3.4218597 1.4375q-1.359375 1.4375 -1.359375 3.609375q0 2.203125 1.359375 3.640625q1.3749847 1.4375 3.4218597 1.4375q0.9375 0 1.828125 -0.359375q0.90625 -0.359375 1.515625 -0.984375l0 -2.53125l-4.265625 0l0 -1.390625l5.8125 0l0 4.5q-1.9375 2.15625 -4.890625 2.15625zm11.42691 -0.03125q-2.03125 0 -3.3125 -1.3125q-1.28125 -1.328125 -1.28125 -3.421875q0 -2.0 1.265625 -3.359375q1.28125 -1.359375 3.171875 -1.359375q1.9375 0 3.125 1.34375q1.203125 1.34375 1.203125 3.484375l0 0.359375l-7.296875 0q0.078125 1.375 1.0 2.25q0.921875 0.859375 2.25 0.859375q1.640625 0 2.78125 -1.140625l0.671875 0.921875q-1.375 1.375 -3.578125 1.375zm2.796875 -5.296875q0 -1.25 -0.828125 -2.125q-0.8125 -0.875 -2.140625 -0.875q-1.25 0 -2.078125 0.875q-0.828125 0.875 -0.875 2.125l5.921875 0zm9.722229 5.078125l0 -5.890625q0 -1.203125 -0.5625 -1.640625q-0.546875 -0.453125 -1.453125 -0.453125q-0.78125 0 -1.546875 0.421875q-0.75 0.421875 -1.125 0.984375l0 6.578125l-1.390625 0l0 -9.015625l1.390625 0l0 1.3125q0.578125 -0.671875 1.421875 -1.09375q0.859375 -0.4375 1.78125 -0.4375q2.875 0 2.875 2.90625l0 6.328125l-1.390625 0zm4.248352 0l0 -12.4375l8.15625 0l0 1.375l-6.609375 0l0 4.015625l6.484375 0l0 1.375l-6.484375 0l0 4.296875l6.609375 0l0 1.375l-8.15625 0zm12.974762 0l-3.75 -9.015625l1.5 0l3.015625 7.390625l2.984375 -7.390625l1.515625 0l-3.75 9.015625l-1.515625 0zm10.797821 0.21875q-2.03125 0 -3.3125 -1.3125q-1.28125 -1.328125 -1.28125 -3.421875q0 -2.0 1.265625 -3.359375q1.28125 -1.359375 3.171875 -1.359375q1.9375 0 3.125 1.34375q1.203125 1.34375 1.203125 3.484375l0 0.359375l-7.296875 0q0.078125 1.375 1.0 2.25q0.921875 0.859375 2.25 0.859375q1.640625 0 2.78125 -1.140625l0.671875 0.921875q-1.375 1.375 -3.578125 1.375zm2.796875 -5.296875q0 -1.25 -0.828125 -2.125q-0.8125 -0.875 -2.140625 -0.875q-1.25 0 -2.078125 0.875q-0.828125 0.875 -0.875 2.125l5.921875 0zm9.722229 5.078125l0 -5.890625q0 -1.203125 -0.5625 -1.640625q-0.546875 -0.453125 -1.453125 -0.453125q-0.78125 0 -1.546875 0.421875q-0.75 0.421875 -1.125 0.984375l0 6.578125l-1.390625 0l0 -9.015625l1.390625 0l0 1.3125q0.578125 -0.671875 1.421875 -1.09375q0.859375 -0.4375 1.78125 -0.4375q2.875 0 2.875 2.90625l0 6.328125l-1.390625 0zm6.467102 0.21875q-2.0 0 -2.0 -2.109375l0 -5.890625l-1.484375 0l0 -1.234375l1.484375 0l0 -2.453125l1.40625 0l0 2.453125l1.828125 0l0 1.234375l-1.828125 0l0 5.59375q0 0.515625 0.21875 0.84375q0.234375 0.3125 0.703125 0.3125q0.578125 0 0.9375 -0.375l0.421875 1.046875q-0.578125 0.578125 -1.6875 0.578125zm8.079498 -0.21875l0 -12.4375l1.546875 0l0 12.4375l-1.546875 0zm4.458832 0l0 -12.4375l4.25 0q2.84375 0 4.609375 1.765625q1.78125 1.75 1.78125 4.453125q0 2.734375 -1.78125 4.484375q-1.78125 1.734375 -4.609375 1.734375l-4.25 0zm4.25 -1.375q2.125 0 3.453125 -1.328125q1.328125 -1.34375 1.328125 -3.515625q0 -2.15625 -1.3125 -3.5q-1.296875 -1.34375 -3.46875 -1.34375l-2.703125 0l0 9.6875l2.703125 0z" fill-rule="nonzero"/><path fill="#eeeeee" d="m428.38452 444.7966l0 0c0 -8.0538025 6.5288696 -14.582703 14.582672 -14.582703l0 0c3.8675537 0 7.576721 1.5364075 10.311493 4.271179c2.7348022 2.7347717 4.271179 6.443939 4.271179 10.311523l0 0c0 8.053772 -6.5288696 14.582672 -14.582672 14.582672l0 0c-8.0538025 0 -14.582672 -6.5289 -14.582672 -14.582672z" fill-rule="evenodd"/><path stroke="#595959" stroke-width="2.0" stroke-linejoin="round" stroke-linecap="butt" d="m428.38452 444.7966l0 0c0 -8.0538025 6.5288696 -14.582703 14.582672 -14.582703l0 0c3.8675537 0 7.576721 1.5364075 10.311493 4.271179c2.7348022 2.7347717 4.271179 6.443939 4.271179 10.311523l0 0c0 8.053772 -6.5288696 14.582672 -14.582672 14.582672l0 0c-8.0538025 0 -14.582672 -6.5289 -14.582672 -14.582672z" fill-rule="evenodd"/><path fill="#000000" d="m443.83817 444.6072l0 -3.875l-1.6875 0l0 3.875l-3.703125 0l0 1.671875l3.703125 0l0 4.109375l1.6875 0l0 -4.109375l3.703125 0l0 -1.671875l-3.703125 0z" fill-rule="nonzero"/><path fill="#000000" fill-opacity="0.0" d="m398.0092 481.57086l34.64566 -26.456696" fill-rule="evenodd"/><path stroke="#595959" stroke-width="2.0" stroke-linejoin="round" stroke-linecap="butt" d="m398.0092 481.57086l29.198212 -22.296783" fill-rule="evenodd"/><path fill="#595959" stroke="#595959" stroke-width="2.0" stroke-linecap="butt" d="m427.20737 459.27408l-0.42251587 3.152588l3.5462646 -5.5379944l-6.276367 1.9628906z" fill-rule="evenodd"/><path fill="#000000" fill-opacity="0.0" d="m457.54987 444.7966l63.653564 -0.12600708" fill-rule="evenodd"/><path stroke="#595959" stroke-width="2.0" stroke-linejoin="round" stroke-linecap="butt" d="m457.54987 444.7966l63.653564 -0.12600708" fill-rule="evenodd"/><path fill="#000000" fill-opacity="0.0" d="m148.53018 216.17586l46.330704 0" fill-rule="evenodd"/><path stroke="#595959" stroke-width="2.0" stroke-linejoin="round" stroke-linecap="butt" d="m148.53018 216.17586l34.330704 0" fill-rule="evenodd"/><path fill="#595959" stroke="#595959" stroke-width="2.0" stroke-linecap="butt" d="m182.86089 219.47932l9.076202 -3.3034668l-9.076202 -3.3034668z" fill-rule="evenodd"/><path fill="#000000" fill-opacity="0.0" d="m148.53018 252.7664l46.330704 0" fill-rule="evenodd"/><path stroke="#595959" stroke-width="2.0" stroke-linejoin="round" stroke-linecap="butt" d="m148.53018 252.7664l34.330704 0" fill-rule="evenodd"/><path fill="#595959" stroke="#595959" stroke-width="2.0" stroke-linecap="butt" d="m182.86089 256.06985l9.076202 -3.3034515l-9.076202 -3.3034668z" fill-rule="evenodd"/><path fill="#000000" fill-opacity="0.0" d="m148.53018 290.82416l46.330704 0" fill-rule="evenodd"/><path stroke="#595959" stroke-width="2.0" stroke-linejoin="round" stroke-linecap="butt" d="m148.53018 290.82416l34.330704 0" fill-rule="evenodd"/><path fill="#595959" stroke="#595959" stroke-width="2.0" stroke-linecap="butt" d="m182.86089 294.12762l9.076202 -3.3034668l-9.076202 -3.3034668z" fill-rule="evenodd"/><path fill="#000000" fill-opacity="0.0" d="m641.9134 444.7979l46.33069 0" fill-rule="evenodd"/><path stroke="#595959" stroke-width="2.0" stroke-linejoin="round" stroke-linecap="butt" d="m641.9134 444.7979l34.33069 0" fill-rule="evenodd"/><path fill="#595959" stroke="#595959" stroke-width="2.0" stroke-linecap="butt" d="m676.2441 448.10138l9.076233 -3.3034668l-9.076233 -3.3034668z" fill-rule="evenodd"/><path fill="#d9ead3" d="m305.69815 236.09465l0 0c0 -4.6039124 3.7322083 -8.336121 8.336151 -8.336121l313.06 0c2.2108765 0 4.331238 0.8782654 5.8945312 2.4415894c1.5633545 1.5633392 2.4415894 3.6836548 2.4415894 5.8945312l0 33.34349c0 4.6039124 -3.7321777 8.336151 -8.336121 8.336151l-313.06 0c-4.603943 0 -8.336151 -3.7322388 -8.336151 -8.336151z" fill-rule="evenodd"/><path stroke="#595959" stroke-width="2.0" stroke-linejoin="round" stroke-linecap="butt" d="m305.69815 236.09465l0 0c0 -4.6039124 3.7322083 -8.336121 8.336151 -8.336121l313.06 0c2.2108765 0 4.331238 0.8782654 5.8945312 2.4415894c1.5633545 1.5633392 2.4415894 3.6836548 2.4415894 5.8945312l0 33.34349c0 4.6039124 -3.7321777 8.336151 -8.336121 8.336151l-313.06 0c-4.603943 0 -8.336151 -3.7322388 -8.336151 -8.336151z" fill-rule="evenodd"/><path fill="#595959" d="m325.05844 253.3489l0 -0.921875l-3.5625 0l0 -2.75l4.09375 0l0 -0.921875l-5.1875 0l0 8.53125l5.25 0l0 -0.921875l-4.15625 0l0 -3.015625l3.5625 0zm4.669922 3.9375l0.828125 0l2.578125 -6.34375l-1.109375 0l-1.78125 4.78125l-0.09375 0.390625l-0.109375 -0.390625l-1.8125 -4.78125l-1.109375 0l2.609375 6.34375zm7.841797 0.125q0.921875 0 1.546875 -0.375q0.625 -0.375 0.953125 -0.859375l-0.671875 -0.515625q-0.296875 0.390625 -0.75 0.625q-0.453125 0.234375 -1.03125 0.234375q-0.4375 0 -0.796875 -0.15625q-0.359375 -0.171875 -0.625 -0.46875q-0.25 -0.265625 -0.390625 -0.609375q-0.140625 -0.359375 -0.1875 -0.8125l0 -0.046875l4.53125 0l0 -0.484375q0 -0.671875 -0.171875 -1.234375q-0.15625 -0.5625 -0.5 -0.984375q-0.34375 -0.421875 -0.859375 -0.65625q-0.515625 -0.234375 -1.1875 -0.234375q-0.546875 0 -1.078125 0.21875q-0.515625 0.21875 -0.921875 0.640625q-0.40625 0.421875 -0.65625 1.03125q-0.234375 0.59375 -0.234375 1.375l0 0.234375q0 0.671875 0.21875 1.234375q0.21875 0.5625 0.625 0.96875q0.390625 0.40625 0.953125 0.640625q0.5625 0.234375 1.234375 0.234375zm-0.140625 -5.6875q0.40625 0 0.703125 0.15625q0.3125 0.140625 0.515625 0.390625q0.1875 0.25 0.296875 0.59375q0.125 0.328125 0.125 0.625l0 0.046875l-3.421875 0q0.0625 -0.4375 0.21875 -0.765625q0.171875 -0.34375 0.40625 -0.578125q0.234375 -0.234375 0.53125 -0.34375q0.296875 -0.125 0.625 -0.125zm4.529297 5.5625l1.09375 0l0 -4.546875q0.109375 -0.203125 0.25 -0.375q0.15625 -0.171875 0.328125 -0.296875q0.21875 -0.15625 0.46875 -0.234375q0.265625 -0.078125 0.5625 -0.078125q0.34375 0 0.609375 0.078125q0.265625 0.078125 0.453125 0.265625q0.1875 0.171875 0.28125 0.46875q0.09375 0.296875 0.09375 0.71875l0 4.0l1.078125 0l0 -4.03125q0 -0.625 -0.15625 -1.078125q-0.140625 -0.46875 -0.4375 -0.765625q-0.28125 -0.296875 -0.6875 -0.4375q-0.40625 -0.140625 -0.90625 -0.140625q-0.375 0 -0.703125 0.109375q-0.328125 0.09375 -0.609375 0.28125q-0.1875 0.125 -0.359375 0.296875q-0.171875 0.15625 -0.3125 0.359375l-0.0625 -0.9375l-0.984375 0l0 6.34375zm9.779297 -7.875l-1.09375 0l0 1.53125l-1.671875 0l0 0.84375l1.671875 0l0 3.4375q0 0.59375 0.15625 1.015625q0.15625 0.40625 0.421875 0.65625q0.265625 0.265625 0.625 0.390625q0.375 0.125 0.796875 0.125q0.25 0 0.5 -0.03125q0.265625 -0.015625 0.484375 -0.0625q0.234375 -0.046875 0.421875 -0.109375q0.203125 -0.0625 0.328125 -0.140625l-0.140625 -0.765625q-0.109375 0.015625 -0.265625 0.046875q-0.15625 0.03125 -0.328125 0.0625q-0.171875 0.03125 -0.359375 0.0625q-0.1875 0.015625 -0.375 0.015625q-0.234375 0 -0.453125 -0.0625q-0.203125 -0.0625 -0.375 -0.203125q-0.15625 -0.140625 -0.25 -0.375q-0.09375 -0.25 -0.09375 -0.625l0 -3.4375l2.40625 0l0 -0.84375l-2.40625 0l0 -1.53125zm5.701172 4.40625l0 0.0625q0 0.84375 0.125 1.578125q0.140625 0.734375 0.359375 1.359375q0.21875 0.640625 0.5 1.15625q0.296875 0.515625 0.625 0.921875q0.3125 0.40625 0.640625 0.6875q0.328125 0.296875 0.609375 0.453125l0.234375 -0.65625q-0.234375 -0.1875 -0.484375 -0.46875q-0.234375 -0.265625 -0.453125 -0.625q-0.21875 -0.359375 -0.421875 -0.828125q-0.1875 -0.46875 -0.34375 -1.015625q-0.140625 -0.546875 -0.234375 -1.171875q-0.078125 -0.640625 -0.078125 -1.375l0 -0.078125q0 -0.765625 0.09375 -1.421875q0.09375 -0.671875 0.25 -1.21875q0.15625 -0.609375 0.40625 -1.125q0.25 -0.515625 0.515625 -0.890625q0.1875 -0.25 0.375 -0.4375q0.1875 -0.203125 0.375 -0.34375l-0.234375 -0.71875q-0.28125 0.15625 -0.609375 0.453125q-0.328125 0.28125 -0.640625 0.6875q-0.328125 0.40625 -0.625 0.9375q-0.28125 0.515625 -0.5 1.140625q-0.21875 0.625 -0.359375 1.375q-0.125 0.734375 -0.125 1.5625zm6.123047 3.46875l1.09375 0l0 -4.546875q0.109375 -0.203125 0.25 -0.375q0.15625 -0.171875 0.328125 -0.296875q0.21875 -0.15625 0.46875 -0.234375q0.265625 -0.078125 0.5625 -0.078125q0.34375 0 0.609375 0.078125q0.265625 0.078125 0.453125 0.265625q0.1875 0.171875 0.28125 0.46875q0.09375 0.296875 0.09375 0.71875l0 4.0l1.078125 0l0 -4.03125q0 -0.625 -0.15625 -1.078125q-0.140625 -0.46875 -0.4375 -0.765625q-0.28125 -0.296875 -0.6875 -0.4375q-0.40625 -0.140625 -0.90625 -0.140625q-0.375 0 -0.703125 0.109375q-0.328125 0.09375 -0.609375 0.28125q-0.1875 0.125 -0.359375 0.296875q-0.171875 0.15625 -0.3125 0.359375l-0.0625 -0.9375l-0.984375 0l0 6.34375zm11.373047 0l1.125 0l0 -0.09375q-0.09375 -0.265625 -0.15625 -0.609375q-0.0625 -0.359375 -0.0625 -0.6875l0 -2.9375q0 -0.53125 -0.203125 -0.921875q-0.1875 -0.40625 -0.515625 -0.6875q-0.34375 -0.25 -0.8125 -0.375q-0.453125 -0.140625 -1.0 -0.140625q-0.578125 0 -1.046875 0.171875q-0.46875 0.15625 -0.796875 0.421875q-0.328125 0.265625 -0.5 0.609375q-0.171875 0.328125 -0.171875 0.671875l1.09375 0q0 -0.203125 0.09375 -0.390625q0.09375 -0.1875 0.265625 -0.3125q0.171875 -0.140625 0.421875 -0.21875q0.265625 -0.078125 0.59375 -0.078125q0.34375 0 0.609375 0.09375q0.28125 0.078125 0.484375 0.234375q0.1875 0.15625 0.296875 0.390625q0.109375 0.234375 0.109375 0.515625l0 0.5l-1.1875 0q-0.65625 0 -1.203125 0.125q-0.53125 0.125 -0.90625 0.390625q-0.390625 0.265625 -0.59375 0.65625q-0.203125 0.390625 -0.203125 0.90625q0 0.40625 0.140625 0.75q0.15625 0.34375 0.453125 0.59375q0.28125 0.25 0.6875 0.40625q0.40625 0.140625 0.90625 0.140625q0.3125 0 0.578125 -0.078125q0.28125 -0.0625 0.53125 -0.171875q0.234375 -0.109375 0.4375 -0.25q0.203125 -0.15625 0.375 -0.3125q0.015625 0.1875 0.046875 0.375q0.046875 0.1875 0.109375 0.3125zm-1.921875 -0.828125q-0.3125 0 -0.5625 -0.078125q-0.234375 -0.078125 -0.390625 -0.234375q-0.15625 -0.140625 -0.234375 -0.328125q-0.078125 -0.203125 -0.078125 -0.4375q0 -0.25 0.09375 -0.4375q0.09375 -0.203125 0.265625 -0.34375q0.25 -0.203125 0.65625 -0.296875q0.421875 -0.09375 0.984375 -0.09375l1.015625 0l0 1.28125q-0.09375 0.1875 -0.265625 0.359375q-0.15625 0.171875 -0.390625 0.3125q-0.21875 0.140625 -0.5 0.21875q-0.265625 0.078125 -0.59375 0.078125zm5.451172 -5.515625l-0.96875 0l0 6.34375l1.03125 0l0 -5.046875q0.03125 -0.09375 0.078125 -0.171875q0.0625 -0.078125 0.140625 -0.15625q0.109375 -0.078125 0.25 -0.109375q0.140625 -0.046875 0.328125 -0.046875q0.1875 0 0.3125 0.046875q0.125 0.03125 0.21875 0.125q0.09375 0.109375 0.140625 0.265625q0.046875 0.140625 0.046875 0.34375l0 4.75l1.03125 0l0 -4.75q0 -0.03125 0 -0.046875q0 -0.03125 0 -0.0625q0.015625 -0.15625 0.0625 -0.265625q0.0625 -0.125 0.15625 -0.21875q0.09375 -0.09375 0.234375 -0.140625q0.140625 -0.046875 0.328125 -0.046875q0.1875 0 0.3125 0.046875q0.140625 0.046875 0.234375 0.140625q0.09375 0.09375 0.140625 0.25q0.046875 0.140625 0.046875 0.34375l0 4.75l1.03125 0l0 -4.734375q0 -0.453125 -0.109375 -0.78125q-0.109375 -0.34375 -0.296875 -0.5625q-0.1875 -0.1875 -0.453125 -0.28125q-0.265625 -0.09375 -0.59375 -0.09375q-0.234375 0 -0.4375 0.0625q-0.203125 0.0625 -0.375 0.15625q-0.125 0.09375 -0.234375 0.21875q-0.109375 0.109375 -0.1875 0.234375q-0.0625 -0.140625 -0.15625 -0.25q-0.09375 -0.125 -0.203125 -0.203125q-0.15625 -0.109375 -0.359375 -0.15625q-0.203125 -0.0625 -0.453125 -0.0625q-0.4375 0 -0.765625 0.1875q-0.3125 0.1875 -0.5 0.515625l-0.03125 -0.59375zm9.513672 6.46875q0.921875 0 1.546875 -0.375q0.625 -0.375 0.953125 -0.859375l-0.671875 -0.515625q-0.296875 0.390625 -0.75 0.625q-0.453125 0.234375 -1.03125 0.234375q-0.4375 0 -0.796875 -0.15625q-0.359375 -0.171875 -0.625 -0.46875q-0.25 -0.265625 -0.390625 -0.609375q-0.140625 -0.359375 -0.1875 -0.8125l0 -0.046875l4.53125 0l0 -0.484375q0 -0.671875 -0.171875 -1.234375q-0.15625 -0.5625 -0.5 -0.984375q-0.34375 -0.421875 -0.859375 -0.65625q-0.515625 -0.234375 -1.1875 -0.234375q-0.546875 0 -1.078125 0.21875q-0.515625 0.21875 -0.921875 0.640625q-0.40625 0.421875 -0.65625 1.03125q-0.234375 0.59375 -0.234375 1.375l0 0.234375q0 0.671875 0.21875 1.234375q0.21875 0.5625 0.625 0.96875q0.390625 0.40625 0.953125 0.640625q0.5625 0.234375 1.234375 0.234375zm-0.140625 -5.6875q0.40625 0 0.703125 0.15625q0.3125 0.140625 0.515625 0.390625q0.1875 0.25 0.296875 0.59375q0.125 0.328125 0.125 0.625l0 0.046875l-3.421875 0q0.0625 -0.4375 0.21875 -0.765625q0.171875 -0.34375 0.40625 -0.578125q0.234375 -0.234375 0.53125 -0.34375q0.296875 -0.125 0.625 -0.125zm7.279297 5.3125l0 -1.03125l-1.171875 0l0 1.046875q0 0.5 -0.125 0.953125q-0.109375 0.46875 -0.390625 0.875l0.671875 0.375q0.46875 -0.421875 0.734375 -1.03125q0.28125 -0.609375 0.28125 -1.1875zm16.355469 -3.6875l0 -0.921875l-3.5625 0l0 -2.75l4.09375 0l0 -0.921875l-5.1875 0l0 8.53125l5.25 0l0 -0.921875l-4.15625 0l0 -3.015625l3.5625 0zm4.669922 3.9375l0.828125 0l2.578125 -6.34375l-1.109375 0l-1.78125 4.78125l-0.09375 0.390625l-0.109375 -0.390625l-1.8125 -4.78125l-1.109375 0l2.609375 6.34375zm7.841797 0.125q0.921875 0 1.546875 -0.375q0.625 -0.375 0.953125 -0.859375l-0.671875 -0.515625q-0.296875 0.390625 -0.75 0.625q-0.453125 0.234375 -1.03125 0.234375q-0.4375 0 -0.796875 -0.15625q-0.359375 -0.171875 -0.625 -0.46875q-0.25 -0.265625 -0.390625 -0.609375q-0.140625 -0.359375 -0.1875 -0.8125l0 -0.046875l4.53125 0l0 -0.484375q0 -0.671875 -0.171875 -1.234375q-0.15625 -0.5625 -0.5 -0.984375q-0.34375 -0.421875 -0.859375 -0.65625q-0.515625 -0.234375 -1.1875 -0.234375q-0.546875 0 -1.078125 0.21875q-0.515625 0.21875 -0.921875 0.640625q-0.40625 0.421875 -0.65625 1.03125q-0.234375 0.59375 -0.234375 1.375l0 0.234375q0 0.671875 0.21875 1.234375q0.21875 0.5625 0.625 0.96875q0.390625 0.40625 0.953125 0.640625q0.5625 0.234375 1.234375 0.234375zm-0.140625 -5.6875q0.40625 0 0.703125 0.15625q0.3125 0.140625 0.515625 0.390625q0.1875 0.25 0.296875 0.59375q0.125 0.328125 0.125 0.625l0 0.046875l-3.421875 0q0.0625 -0.4375 0.21875 -0.765625q0.171875 -0.34375 0.40625 -0.578125q0.234375 -0.234375 0.53125 -0.34375q0.296875 -0.125 0.625 -0.125zm4.529297 5.5625l1.09375 0l0 -4.546875q0.109375 -0.203125 0.25 -0.375q0.15625 -0.171875 0.328125 -0.296875q0.21875 -0.15625 0.46875 -0.234375q0.265625 -0.078125 0.5625 -0.078125q0.34375 0 0.609375 0.078125q0.265625 0.078125 0.453125 0.265625q0.1875 0.171875 0.28125 0.46875q0.09375 0.296875 0.09375 0.71875l0 4.0l1.078125 0l0 -4.03125q0 -0.625 -0.15625 -1.078125q-0.140625 -0.46875 -0.4375 -0.765625q-0.28125 -0.296875 -0.6875 -0.4375q-0.40625 -0.140625 -0.90625 -0.140625q-0.375 0 -0.703125 0.109375q-0.328125 0.09375 -0.609375 0.28125q-0.1875 0.125 -0.359375 0.296875q-0.171875 0.15625 -0.3125 0.359375l-0.0625 -0.9375l-0.984375 0l0 6.34375zm9.779297 -7.875l-1.09375 0l0 1.53125l-1.671875 0l0 0.84375l1.671875 0l0 3.4375q0 0.59375 0.15625 1.015625q0.15625 0.40625 0.421875 0.65625q0.265625 0.265625 0.625 0.390625q0.375 0.125 0.796875 0.125q0.25 0 0.5 -0.03125q0.265625 -0.015625 0.484375 -0.0625q0.234375 -0.046875 0.421875 -0.109375q0.203125 -0.0625 0.328125 -0.140625l-0.140625 -0.765625q-0.109375 0.015625 -0.265625 0.046875q-0.15625 0.03125 -0.328125 0.0625q-0.171875 0.03125 -0.359375 0.0625q-0.1875 0.015625 -0.375 0.015625q-0.234375 0 -0.453125 -0.0625q-0.203125 -0.0625 -0.375 -0.203125q-0.15625 -0.140625 -0.25 -0.375q-0.09375 -0.25 -0.09375 -0.625l0 -3.4375l2.40625 0l0 -0.84375l-2.40625 0l0 -1.53125zm11.824219 -0.65625l0 0.9375l2.0 0l0 6.65625l-2.0 0l0 0.9375l5.15625 0l0 -0.9375l-2.046875 0l0 -6.65625l2.046875 0l0 -0.9375l-5.15625 0zm7.091797 8.53125l1.984375 0q0.609375 0 1.140625 -0.140625q0.53125 -0.140625 0.953125 -0.40625q0.390625 -0.25 0.71875 -0.609375q0.328125 -0.359375 0.53125 -0.796875q0.203125 -0.421875 0.3125 -0.921875q0.109375 -0.515625 0.109375 -1.078125l0 -0.625q0 -0.578125 -0.125 -1.09375q-0.109375 -0.515625 -0.328125 -0.953125q-0.234375 -0.515625 -0.640625 -0.90625q-0.40625 -0.390625 -0.921875 -0.625q-0.375 -0.171875 -0.828125 -0.265625q-0.4375 -0.109375 -0.921875 -0.109375l-1.984375 0l0 8.53125zm1.109375 -7.640625l0.875 0q0.390625 0 0.734375 0.09375q0.34375 0.078125 0.625 0.234375q0.375 0.203125 0.640625 0.53125q0.265625 0.328125 0.4375 0.75q0.109375 0.3125 0.171875 0.6875q0.0625 0.359375 0.078125 0.75l0 0.640625q-0.015625 0.390625 -0.078125 0.75q-0.046875 0.359375 -0.171875 0.671875q-0.125 0.390625 -0.359375 0.703125q-0.234375 0.296875 -0.546875 0.515625q-0.296875 0.203125 -0.6875 0.3125q-0.375 0.109375 -0.84375 0.109375l-0.875 0l0 -6.75zm8.951172 7.390625l0 -1.03125l-1.171875 0l0 1.046875q0 0.5 -0.125 0.953125q-0.109375 0.46875 -0.390625 0.875l0.671875 0.375q0.46875 -0.421875 0.734375 -1.03125q0.28125 -0.609375 0.28125 -1.1875zm11.542969 0.25l1.984375 0q0.609375 0 1.140625 -0.140625q0.53125 -0.140625 0.953125 -0.40625q0.390625 -0.25 0.71875 -0.609375q0.328125 -0.359375 0.53125 -0.796875q0.203125 -0.421875 0.3125 -0.921875q0.109375 -0.515625 0.109375 -1.078125l0 -0.625q0 -0.578125 -0.125 -1.09375q-0.109375 -0.515625 -0.328125 -0.953125q-0.234375 -0.515625 -0.640625 -0.90625q-0.40625 -0.390625 -0.921875 -0.625q-0.375 -0.171875 -0.828125 -0.265625q-0.4375 -0.109375 -0.921875 -0.109375l-1.984375 0l0 8.53125zm1.109375 -7.640625l0.875 0q0.390625 0 0.734375 0.09375q0.34375 0.078125 0.625 0.234375q0.375 0.203125 0.640625 0.53125q0.265625 0.328125 0.4375 0.75q0.109375 0.3125 0.171875 0.6875q0.0625 0.359375 0.078125 0.75l0 0.640625q-0.015625 0.390625 -0.078125 0.75q-0.046875 0.359375 -0.171875 0.671875q-0.125 0.390625 -0.359375 0.703125q-0.234375 0.296875 -0.546875 0.515625q-0.296875 0.203125 -0.6875 0.3125q-0.375 0.109375 -0.84375 0.109375l-0.875 0l0 -6.75zm10.373047 7.640625l1.125 0l0 -0.09375q-0.09375 -0.265625 -0.15625 -0.609375q-0.0625 -0.359375 -0.0625 -0.6875l0 -2.9375q0 -0.53125 -0.203125 -0.921875q-0.1875 -0.40625 -0.515625 -0.6875q-0.34375 -0.25 -0.8125 -0.375q-0.453125 -0.140625 -1.0 -0.140625q-0.578125 0 -1.046875 0.171875q-0.46875 0.15625 -0.796875 0.421875q-0.328125 0.265625 -0.5 0.609375q-0.171875 0.328125 -0.171875 0.671875l1.09375 0q0 -0.203125 0.09375 -0.390625q0.09375 -0.1875 0.265625 -0.3125q0.171875 -0.140625 0.421875 -0.21875q0.265625 -0.078125 0.59375 -0.078125q0.34375 0 0.609375 0.09375q0.28125 0.078125 0.484375 0.234375q0.1875 0.15625 0.296875 0.390625q0.109375 0.234375 0.109375 0.515625l0 0.5l-1.1875 0q-0.65625 0 -1.203125 0.125q-0.53125 0.125 -0.90625 0.390625q-0.390625 0.265625 -0.59375 0.65625q-0.203125 0.390625 -0.203125 0.90625q0 0.40625 0.140625 0.75q0.15625 0.34375 0.453125 0.59375q0.28125 0.25 0.6875 0.40625q0.40625 0.140625 0.90625 0.140625q0.3125 0 0.578125 -0.078125q0.28125 -0.0625 0.53125 -0.171875q0.234375 -0.109375 0.4375 -0.25q0.203125 -0.15625 0.375 -0.3125q0.015625 0.1875 0.046875 0.375q0.046875 0.1875 0.109375 0.3125zm-1.921875 -0.828125q-0.3125 0 -0.5625 -0.078125q-0.234375 -0.078125 -0.390625 -0.234375q-0.15625 -0.140625 -0.234375 -0.328125q-0.078125 -0.203125 -0.078125 -0.4375q0 -0.25 0.09375 -0.4375q0.09375 -0.203125 0.265625 -0.34375q0.25 -0.203125 0.65625 -0.296875q0.421875 -0.09375 0.984375 -0.09375l1.015625 0l0 1.28125q-0.09375 0.1875 -0.265625 0.359375q-0.15625 0.171875 -0.390625 0.3125q-0.21875 0.140625 -0.5 0.21875q-0.265625 0.078125 -0.59375 0.078125zm7.529297 -7.046875l-1.09375 0l0 1.53125l-1.671875 0l0 0.84375l1.671875 0l0 3.4375q0 0.59375 0.15625 1.015625q0.15625 0.40625 0.421875 0.65625q0.265625 0.265625 0.625 0.390625q0.375 0.125 0.796875 0.125q0.25 0 0.5 -0.03125q0.265625 -0.015625 0.484375 -0.0625q0.234375 -0.046875 0.421875 -0.109375q0.203125 -0.0625 0.328125 -0.140625l-0.140625 -0.765625q-0.109375 0.015625 -0.265625 0.046875q-0.15625 0.03125 -0.328125 0.0625q-0.171875 0.03125 -0.359375 0.0625q-0.1875 0.015625 -0.375 0.015625q-0.234375 0 -0.453125 -0.0625q-0.203125 -0.0625 -0.375 -0.203125q-0.15625 -0.140625 -0.25 -0.375q-0.09375 -0.25 -0.09375 -0.625l0 -3.4375l2.40625 0l0 -0.84375l-2.40625 0l0 -1.53125zm8.794922 7.875l1.125 0l0 -0.09375q-0.09375 -0.265625 -0.15625 -0.609375q-0.0625 -0.359375 -0.0625 -0.6875l0 -2.9375q0 -0.53125 -0.203125 -0.921875q-0.1875 -0.40625 -0.515625 -0.6875q-0.34375 -0.25 -0.8125 -0.375q-0.453125 -0.140625 -1.0 -0.140625q-0.578125 0 -1.046875 0.171875q-0.46875 0.15625 -0.796875 0.421875q-0.328125 0.265625 -0.5 0.609375q-0.171875 0.328125 -0.171875 0.671875l1.09375 0q0 -0.203125 0.09375 -0.390625q0.09375 -0.1875 0.265625 -0.3125q0.171875 -0.140625 0.421875 -0.21875q0.265625 -0.078125 0.59375 -0.078125q0.34375 0 0.609375 0.09375q0.28125 0.078125 0.484375 0.234375q0.1875 0.15625 0.296875 0.390625q0.109375 0.234375 0.109375 0.515625l0 0.5l-1.1875 0q-0.65625 0 -1.203125 0.125q-0.53125 0.125 -0.90625 0.390625q-0.390625 0.265625 -0.59375 0.65625q-0.203125 0.390625 -0.203125 0.90625q0 0.40625 0.140625 0.75q0.15625 0.34375 0.453125 0.59375q0.28125 0.25 0.6875 0.40625q0.40625 0.140625 0.90625 0.140625q0.3125 0 0.578125 -0.078125q0.28125 -0.0625 0.53125 -0.171875q0.234375 -0.109375 0.4375 -0.25q0.203125 -0.15625 0.375 -0.3125q0.015625 0.1875 0.046875 0.375q0.046875 0.1875 0.109375 0.3125zm-1.921875 -0.828125q-0.3125 0 -0.5625 -0.078125q-0.234375 -0.078125 -0.390625 -0.234375q-0.15625 -0.140625 -0.234375 -0.328125q-0.078125 -0.203125 -0.078125 -0.4375q0 -0.25 0.09375 -0.4375q0.09375 -0.203125 0.265625 -0.34375q0.25 -0.203125 0.65625 -0.296875q0.421875 -0.09375 0.984375 -0.09375l1.015625 0l0 1.28125q-0.09375 0.1875 -0.265625 0.359375q-0.15625 0.171875 -0.390625 0.3125q-0.21875 0.140625 -0.5 0.21875q-0.265625 0.078125 -0.59375 0.078125zm7.701172 0.578125l0 -1.03125l-1.171875 0l0 1.046875q0 0.5 -0.125 0.953125q-0.109375 0.46875 -0.390625 0.875l0.671875 0.375q0.46875 -0.421875 0.734375 -1.03125q0.28125 -0.609375 0.28125 -1.1875zm12.839874 -3.171875l1.6875 0q0.5625 0 1.078125 -0.171875q0.515625 -0.171875 0.90625 -0.5q0.390625 -0.3125 0.609375 -0.78125q0.21875 -0.484375 0.21875 -1.09375q0 -0.625 -0.21875 -1.09375q-0.21875 -0.46875 -0.609375 -0.796875q-0.390625 -0.328125 -0.90625 -0.484375q-0.515625 -0.171875 -1.078125 -0.1875l-2.765625 0l0 8.53125l1.078125 0l0 -3.421875zm0 -0.890625l0 -3.328125l1.6875 0q0.375 0 0.6875 0.125q0.328125 0.109375 0.5625 0.328125q0.21875 0.21875 0.34375 0.53125q0.140625 0.3125 0.140625 0.703125q0 0.375 -0.140625 0.6875q-0.125 0.296875 -0.359375 0.5q-0.234375 0.21875 -0.546875 0.34375q-0.3125 0.109375 -0.6875 0.109375l-1.6875 0zm10.185547 4.3125l1.125 0l0 -0.09375q-0.09375 -0.265625 -0.15625 -0.609375q-0.0625 -0.359375 -0.0625 -0.6875l0 -2.9375q0 -0.53125 -0.203125 -0.921875q-0.1875 -0.40625 -0.515625 -0.6875q-0.34375 -0.25 -0.8125 -0.375q-0.453125 -0.140625 -1.0 -0.140625q-0.578125 0 -1.046875 0.171875q-0.46875 0.15625 -0.796875 0.421875q-0.328125 0.265625 -0.5 0.609375q-0.171875 0.328125 -0.171875 0.671875l1.09375 0q0 -0.203125 0.09375 -0.390625q0.09375 -0.1875 0.265625 -0.3125q0.171875 -0.140625 0.421875 -0.21875q0.265625 -0.078125 0.59375 -0.078125q0.34375 0 0.609375 0.09375q0.28125 0.078125 0.484375 0.234375q0.1875 0.15625 0.296875 0.390625q0.109375 0.234375 0.109375 0.515625l0 0.5l-1.1875 0q-0.65625 0 -1.203125 0.125q-0.53125 0.125 -0.90625 0.390625q-0.390625 0.265625 -0.59375 0.65625q-0.203125 0.390625 -0.203125 0.90625q0 0.40625 0.140625 0.75q0.15625 0.34375 0.453125 0.59375q0.28125 0.25 0.6875 0.40625q0.40625 0.140625 0.90625 0.140625q0.3125 0 0.578125 -0.078125q0.28125 -0.0625 0.53125 -0.171875q0.234375 -0.109375 0.4375 -0.25q0.203125 -0.15625 0.375 -0.3125q0.015625 0.1875 0.046875 0.375q0.046875 0.1875 0.109375 0.3125zm-1.921875 -0.828125q-0.3125 0 -0.5625 -0.078125q-0.234375 -0.078125 -0.390625 -0.234375q-0.15625 -0.140625 -0.234375 -0.328125q-0.078125 -0.203125 -0.078125 -0.4375q0 -0.25 0.09375 -0.4375q0.09375 -0.203125 0.265625 -0.34375q0.25 -0.203125 0.65625 -0.296875q0.421875 -0.09375 0.984375 -0.09375l1.015625 0l0 1.28125q-0.09375 0.1875 -0.265625 0.359375q-0.15625 0.171875 -0.390625 0.3125q-0.21875 0.140625 -0.5 0.21875q-0.265625 0.078125 -0.59375 0.078125zm9.107422 -5.625q-0.6875 0 -1.234375 0.296875q-0.53125 0.296875 -0.921875 0.828125l-0.015625 -0.15625l-0.046875 -0.859375l-1.03125 0l0 6.34375l1.09375 0l0 -4.0625q0.109375 -0.296875 0.265625 -0.53125q0.171875 -0.234375 0.375 -0.40625q0.25 -0.1875 0.5625 -0.28125q0.328125 -0.09375 0.734375 -0.09375q0.296875 0 0.578125 0.03125q0.296875 0.03125 0.609375 0.09375l0.140625 -1.0625q-0.15625 -0.0625 -0.484375 -0.09375q-0.328125 -0.046875 -0.625 -0.046875zm5.857422 6.578125q0.921875 0 1.546875 -0.375q0.625 -0.375 0.953125 -0.859375l-0.671875 -0.515625q-0.296875 0.390625 -0.75 0.625q-0.453125 0.234375 -1.03125 0.234375q-0.4375 0 -0.796875 -0.15625q-0.359375 -0.171875 -0.625 -0.46875q-0.25 -0.265625 -0.390625 -0.609375q-0.140625 -0.359375 -0.1875 -0.8125l0 -0.046875l4.53125 0l0 -0.484375q0 -0.671875 -0.171875 -1.234375q-0.15625 -0.5625 -0.5 -0.984375q-0.34375 -0.421875 -0.859375 -0.65625q-0.515625 -0.234375 -1.1875 -0.234375q-0.546875 0 -1.078125 0.21875q-0.515625 0.21875 -0.921875 0.640625q-0.40625 0.421875 -0.65625 1.03125q-0.234375 0.59375 -0.234375 1.375l0 0.234375q0 0.671875 0.21875 1.234375q0.21875 0.5625 0.625 0.96875q0.390625 0.40625 0.953125 0.640625q0.5625 0.234375 1.234375 0.234375zm-0.140625 -5.6875q0.40625 0 0.703125 0.15625q0.3125 0.140625 0.515625 0.390625q0.1875 0.25 0.296875 0.59375q0.125 0.328125 0.125 0.625l0 0.046875l-3.421875 0q0.0625 -0.4375 0.21875 -0.765625q0.171875 -0.34375 0.40625 -0.578125q0.234375 -0.234375 0.53125 -0.34375q0.296875 -0.125 0.625 -0.125zm4.529297 5.5625l1.09375 0l0 -4.546875q0.109375 -0.203125 0.25 -0.375q0.15625 -0.171875 0.328125 -0.296875q0.21875 -0.15625 0.46875 -0.234375q0.265625 -0.078125 0.5625 -0.078125q0.34375 0 0.609375 0.078125q0.265625 0.078125 0.453125 0.265625q0.1875 0.171875 0.28125 0.46875q0.09375 0.296875 0.09375 0.71875l0 4.0l1.078125 0l0 -4.03125q0 -0.625 -0.15625 -1.078125q-0.140625 -0.46875 -0.4375 -0.765625q-0.28125 -0.296875 -0.6875 -0.4375q-0.40625 -0.140625 -0.90625 -0.140625q-0.375 0 -0.703125 0.109375q-0.328125 0.09375 -0.609375 0.28125q-0.1875 0.125 -0.359375 0.296875q-0.171875 0.15625 -0.3125 0.359375l-0.0625 -0.9375l-0.984375 0l0 6.34375zm9.779297 -7.875l-1.09375 0l0 1.53125l-1.671875 0l0 0.84375l1.671875 0l0 3.4375q0 0.59375 0.15625 1.015625q0.15625 0.40625 0.421875 0.65625q0.265625 0.265625 0.625 0.390625q0.375 0.125 0.796875 0.125q0.25 0 0.5 -0.03125q0.265625 -0.015625 0.484375 -0.0625q0.234375 -0.046875 0.421875 -0.109375q0.203125 -0.0625 0.328125 -0.140625l-0.140625 -0.765625q-0.109375 0.015625 -0.265625 0.046875q-0.15625 0.03125 -0.328125 0.0625q-0.171875 0.03125 -0.359375 0.0625q-0.1875 0.015625 -0.375 0.015625q-0.234375 0 -0.453125 -0.0625q-0.203125 -0.0625 -0.375 -0.203125q-0.15625 -0.140625 -0.25 -0.375q-0.09375 -0.25 -0.09375 -0.625l0 -3.4375l2.40625 0l0 -0.84375l-2.40625 0l0 -1.53125zm7.372986 7.625l0 -1.03125l-1.171875 0l0 1.046875q0 0.5 -0.125 0.953125q-0.109375 0.46875 -0.390625 0.875l0.671875 0.375q0.46875 -0.421875 0.734375 -1.03125q0.28125 -0.609375 0.28125 -1.1875zm17.183594 -2.3125l-1.078125 0q-0.0625 0.375 -0.1875 0.71875q-0.125 0.328125 -0.34375 0.5625q-0.21875 0.25 -0.53125 0.390625q-0.3125 0.125 -0.75 0.125q-0.390625 0 -0.6875 -0.125q-0.28125 -0.125 -0.5 -0.34375q-0.21875 -0.21875 -0.359375 -0.5q-0.140625 -0.296875 -0.234375 -0.625q-0.078125 -0.3125 -0.125 -0.65625q-0.03125 -0.34375 -0.03125 -0.65625l0 -1.203125q0 -0.3125 0.03125 -0.640625q0.046875 -0.34375 0.125 -0.671875q0.09375 -0.3125 0.234375 -0.59375q0.140625 -0.296875 0.359375 -0.515625q0.21875 -0.21875 0.515625 -0.34375q0.296875 -0.125 0.671875 -0.125q0.4375 0 0.75 0.140625q0.3125 0.140625 0.53125 0.40625q0.21875 0.25 0.34375 0.578125q0.125 0.328125 0.1875 0.71875l1.078125 0q-0.078125 -0.609375 -0.296875 -1.109375q-0.21875 -0.5 -0.578125 -0.875q-0.359375 -0.34375 -0.875 -0.546875q-0.5 -0.203125 -1.140625 -0.203125q-0.53125 0 -0.953125 0.15625q-0.421875 0.15625 -0.765625 0.40625q-0.34375 0.265625 -0.59375 0.625q-0.234375 0.359375 -0.390625 0.78125q-0.15625 0.421875 -0.234375 0.890625q-0.078125 0.46875 -0.09375 0.9375l0 1.1875q0.015625 0.484375 0.09375 0.953125q0.078125 0.453125 0.234375 0.875q0.15625 0.421875 0.390625 0.78125q0.25 0.359375 0.59375 0.609375q0.34375 0.265625 0.765625 0.421875q0.4375 0.15625 0.953125 0.15625q0.625 0 1.125 -0.203125q0.5 -0.203125 0.875 -0.5625q0.359375 -0.34375 0.578125 -0.828125q0.234375 -0.5 0.3125 -1.09375zm2.1855469 5.125q0.421875 0 0.75 -0.15625q0.328125 -0.15625 0.578125 -0.390625q0.25 -0.234375 0.421875 -0.515625q0.171875 -0.28125 0.28125 -0.515625l3.21875 -7.328125l-1.21875 0l-1.625 4.109375l-0.296875 0.75l-0.28125 -0.765625l-1.75 -4.09375l-1.203125 0l2.71875 6.046875l-0.421875 0.84375q-0.0625 0.109375 -0.171875 0.296875q-0.09375 0.1875 -0.234375 0.359375q-0.15625 0.15625 -0.34375 0.28125q-0.171875 0.125 -0.40625 0.125q-0.078125 0 -0.21875 -0.015625q-0.140625 0 -0.296875 -0.015625l-0.171875 0.890625q0.109375 0.015625 0.3125 0.046875q0.203125 0.046875 0.359375 0.046875zm9.388672 -3.328125q-0.5 0 -0.84375 -0.203125q-0.34375 -0.203125 -0.546875 -0.53125q-0.21875 -0.3125 -0.3125 -0.71875q-0.09375 -0.40625 -0.09375 -0.828125l0 -0.25q0 -0.40625 0.09375 -0.8125q0.09375 -0.40625 0.3125 -0.734375q0.203125 -0.3125 0.546875 -0.515625q0.34375 -0.203125 0.84375 -0.203125q0.328125 0 0.609375 0.109375q0.296875 0.109375 0.5 0.296875q0.203125 0.203125 0.3125 0.453125q0.125 0.25 0.140625 0.546875l1.015625 0q0 -0.484375 -0.203125 -0.90625q-0.1875 -0.421875 -0.515625 -0.734375q-0.34375 -0.296875 -0.828125 -0.46875q-0.46875 -0.1875 -1.03125 -0.1875q-0.71875 0 -1.265625 0.265625q-0.53125 0.25 -0.890625 0.671875q-0.359375 0.453125 -0.546875 1.03125q-0.171875 0.5625 -0.171875 1.1875l0 0.25q0 0.625 0.171875 1.203125q0.1875 0.578125 0.546875 1.0q0.359375 0.4375 0.890625 0.703125q0.546875 0.265625 1.265625 0.265625q0.5 0 0.96875 -0.171875q0.46875 -0.1875 0.828125 -0.46875q0.34375 -0.296875 0.5625 -0.671875q0.21875 -0.390625 0.21875 -0.8125l-1.015625 0q-0.015625 0.265625 -0.15625 0.5q-0.125 0.21875 -0.34375 0.375q-0.203125 0.171875 -0.484375 0.265625q-0.28125 0.09375 -0.578125 0.09375zm4.669922 -8.234375l0 0.9375l2.15625 0l0 7.125l-2.15625 0l0 0.9375l5.3125 0l0 -0.9375l-2.0625 0l0 -8.0625l-3.25 0zm9.841797 9.125q0.921875 0 1.546875 -0.375q0.625 -0.375 0.953125 -0.859375l-0.671875 -0.515625q-0.296875 0.390625 -0.75 0.625q-0.453125 0.234375 -1.03125 0.234375q-0.4375 0 -0.796875 -0.15625q-0.359375 -0.171875 -0.625 -0.46875q-0.25 -0.265625 -0.390625 -0.609375q-0.140625 -0.359375 -0.1875 -0.8125l0 -0.046875l4.53125 0l0 -0.484375q0 -0.671875 -0.171875 -1.234375q-0.15625 -0.5625 -0.5 -0.984375q-0.34375 -0.421875 -0.859375 -0.65625q-0.515625 -0.234375 -1.1875 -0.234375q-0.546875 0 -1.078125 0.21875q-0.515625 0.21875 -0.921875 0.640625q-0.40625 0.421875 -0.65625 1.03125q-0.234375 0.59375 -0.234375 1.375l0 0.234375q0 0.671875 0.21875 1.234375q0.21875 0.5625 0.625 0.96875q0.390625 0.40625 0.953125 0.640625q0.5625 0.234375 1.234375 0.234375zm-0.140625 -5.6875q0.40625 0 0.703125 0.15625q0.3125 0.140625 0.515625 0.390625q0.1875 0.25 0.296875 0.59375q0.125 0.328125 0.125 0.625l0 0.046875l-3.421875 0q0.0625 -0.4375 0.21875 -0.765625q0.171875 -0.34375 0.40625 -0.578125q0.234375 -0.234375 0.53125 -0.34375q0.296875 -0.125 0.625 -0.125zm8.482422 2.15625l0 -0.0625q0 -0.890625 -0.140625 -1.609375q-0.125 -0.71875 -0.34375 -1.328125q-0.21875 -0.640625 -0.5 -1.140625q-0.28125 -0.515625 -0.609375 -0.9375q-0.328125 -0.40625 -0.65625 -0.6875q-0.328125 -0.296875 -0.609375 -0.453125l-0.234375 0.65625q0.1875 0.15625 0.390625 0.390625q0.21875 0.21875 0.40625 0.515625q0.25 0.390625 0.484375 0.90625q0.25 0.5 0.421875 1.15625q0.109375 0.4375 0.203125 1.09375q0.109375 0.640625 0.109375 1.4375l0 0.078125q0 0.6875 -0.078125 1.3125q-0.078125 0.609375 -0.203125 1.140625q-0.140625 0.5625 -0.34375 1.03125q-0.1875 0.484375 -0.40625 0.875q-0.234375 0.375 -0.484375 0.65625q-0.25 0.28125 -0.5 0.46875l0.234375 0.65625q0.28125 -0.15625 0.609375 -0.453125q0.328125 -0.28125 0.65625 -0.6875q0.3125 -0.40625 0.59375 -0.921875q0.296875 -0.515625 0.515625 -1.15625q0.234375 -0.625 0.359375 -1.359375q0.125 -0.734375 0.125 -1.578125z" fill-rule="nonzero"/><path fill="#000000" fill-opacity="0.0" d="m194.78215 195.71654l95.086624 0l0 18.992126l-95.086624 0z" fill-rule="evenodd"/><path fill="#595959" d="m208.6259 222.63654l1.453125 0l4.1875 -13.265625l-1.796875 0l-2.9375 9.890625l-0.1875 0.65625l-0.203125 -0.640625l-2.90625 -9.90625l-1.8125 0l4.203125 13.265625zm14.414322 0l1.75 0l0 -0.140625q-0.15625 -0.421875 -0.25 -0.96875q-0.09375 -0.546875 -0.09375 -1.046875l0 -4.578125q0 -0.828125 -0.296875 -1.4375q-0.296875 -0.625 -0.8125 -1.046875q-0.53125 -0.40625 -1.25 -0.609375q-0.71875 -0.203125 -1.5625 -0.203125q-0.921875 0 -1.65625 0.25q-0.71875 0.25 -1.21875 0.65625q-0.5 0.421875 -0.78125 0.953125q-0.265625 0.515625 -0.265625 1.046875l1.6875 0q0 -0.3125 0.140625 -0.59375q0.15625 -0.28125 0.4375 -0.5q0.265625 -0.203125 0.65625 -0.328125q0.40625 -0.140625 0.90625 -0.140625q0.546875 0 0.96875 0.140625q0.4375 0.140625 0.734375 0.390625q0.296875 0.25 0.453125 0.609375q0.171875 0.34375 0.171875 0.796875l0 0.78125l-1.828125 0q-1.03125 0 -1.875 0.203125q-0.828125 0.1875 -1.421875 0.59375q-0.59375 0.40625 -0.921875 1.015625q-0.3125 0.609375 -0.3125 1.421875q0 0.625 0.234375 1.15625q0.25 0.53125 0.6875 0.90625q0.4375 0.40625 1.0625 0.640625q0.640625 0.21875 1.4375 0.21875q0.46875 0 0.890625 -0.109375q0.4375 -0.09375 0.828125 -0.265625q0.375 -0.171875 0.6875 -0.390625q0.3125 -0.234375 0.5625 -0.5q0.03125 0.3125 0.09375 0.609375q0.0625 0.28125 0.15625 0.46875zm-2.984375 -1.28125q-0.484375 0 -0.859375 -0.125q-0.375 -0.140625 -0.625 -0.359375q-0.234375 -0.21875 -0.359375 -0.53125q-0.125 -0.3125 -0.125 -0.671875q0 -0.390625 0.140625 -0.6875q0.140625 -0.296875 0.40625 -0.515625q0.390625 -0.3125 1.03125 -0.453125q0.65625 -0.15625 1.53125 -0.15625l1.5625 0l0 2.0q-0.140625 0.28125 -0.40625 0.5625q-0.25 0.265625 -0.59375 0.46875q-0.34375 0.203125 -0.78125 0.34375q-0.421875 0.125 -0.921875 0.125zm7.961197 -12.71875l0 1.46875l3.359375 0l0 11.078125l-3.359375 0l0 1.453125l8.265625 0l0 -1.453125l-3.21875 0l0 -12.546875l-5.046875 0zm11.195572 4.140625l0 1.46875l3.359375 0l0 6.9375l-3.359375 0l0 1.453125l8.265625 0l0 -1.453125l-3.21875 0l0 -8.40625l-5.046875 0zm3.140625 -2.578125q0 0.40625 0.25 0.6875q0.25 0.265625 0.765625 0.265625q0.5 0 0.75 -0.265625q0.25 -0.28125 0.25 -0.6875q0 -0.234375 -0.078125 -0.421875q-0.0625 -0.1875 -0.203125 -0.328125q-0.125 -0.109375 -0.3125 -0.171875q-0.171875 -0.078125 -0.40625 -0.078125q-0.25 0 -0.4375 0.078125q-0.171875 0.0625 -0.296875 0.171875q-0.140625 0.140625 -0.21875 0.34375q-0.0625 0.1875 -0.0625 0.40625zm7.476822 7.421875l0 0.203125q0 1.046875 0.28125 1.96875q0.28125 0.90625 0.796875 1.59375q0.5 0.671875 1.21875 1.0625q0.734375 0.375 1.625 0.375q0.921875 0 1.59375 -0.3125q0.68751526 -0.3125 1.1875153 -0.90625l0.0625 1.03125l1.546875 0l0 -14.0l-1.6875 0l0 5.125q-0.46876526 -0.578125 -1.1406403 -0.859375q-0.65625 -0.296875 -1.546875 -0.296875q-0.890625 0 -1.625 0.375q-0.734375 0.359375 -1.234375 1.03125q-0.515625 0.65625 -0.796875 1.59375q-0.28125 0.921875 -0.28125 2.015625zm1.6875 0.203125l0 -0.203125q0 -0.71875 0.15625 -1.359375q0.15625 -0.65625 0.484375 -1.15625q0.3125 -0.5 0.8125 -0.78125q0.515625 -0.296875 1.21875 -0.296875q0.828125 0 1.375 0.390625q0.56251526 0.390625 0.89064026 0.984375l0 4.578125q-0.328125 0.640625 -0.89064026 1.03125q-0.546875 0.375 -1.390625 0.375q-0.703125 0 -1.203125 -0.28125q-0.5 -0.296875 -0.8125 -0.78125q-0.328125 -0.5 -0.484375 -1.140625q-0.15625 -0.640625 -0.15625 -1.359375z" fill-rule="nonzero"/><path fill="#000000" fill-opacity="0.0" d="m194.78215 233.04068l73.07088 0l0 18.992126l-73.07088 0z" fill-rule="evenodd"/><path fill="#595959" d="m205.1884 259.9607l3.078125 0q0.953125 -0.015625 1.78125 -0.234375q0.828125 -0.21875 1.484375 -0.625q0.609375 -0.390625 1.109375 -0.9375q0.5 -0.5625 0.828125 -1.25q0.328125 -0.65625 0.484375 -1.4375153q0.171875 -0.78125 0.171875 -1.65625l0 -0.96875q0 -0.921875 -0.1875 -1.71875q-0.171875 -0.796875 -0.515625 -1.46875q-0.359375 -0.796875 -0.984375 -1.40625q-0.625 -0.609375 -1.4375 -0.984375q-0.59375 -0.265625 -1.28125 -0.40625q-0.6875 -0.15625 -1.453125 -0.171875l-3.078125 0l0 13.26564zm1.71875 -11.875015l1.359375 0q0.625 0 1.15625 0.140625q0.53125 0.125 0.953125 0.359375q0.609375 0.328125 1.015625 0.84375q0.421875 0.515625 0.65625 1.15625q0.203125 0.484375 0.296875 1.0625q0.09375 0.5625 0.09375 1.1875l0 0.984375q0 0.609375 -0.09375 1.171875q-0.09375 0.5625 -0.265625 1.0468903q-0.21875 0.59375 -0.578125 1.078125q-0.359375 0.46875 -0.84375 0.796875q-0.46875 0.3125 -1.078125 0.484375q-0.59375 0.171875 -1.3125 0.1875l-1.359375 0l0 -10.500015zm16.133072 11.875015l1.75 0l0 -0.140625q-0.15625 -0.421875 -0.25 -0.96875q-0.09375 -0.546875 -0.09375 -1.046875l0 -4.5781403q0 -0.828125 -0.296875 -1.4375q-0.296875 -0.625 -0.8125 -1.046875q-0.53125 -0.40625 -1.25 -0.609375q-0.71875 -0.203125 -1.5625 -0.203125q-0.921875 0 -1.65625 0.25q-0.71875 0.25 -1.21875 0.65625q-0.5 0.421875 -0.78125 0.953125q-0.265625 0.515625 -0.265625 1.046875l1.6875 0q0 -0.3125 0.140625 -0.59375q0.15625 -0.28125 0.4375 -0.5q0.265625 -0.203125 0.65625 -0.328125q0.40625 -0.140625 0.90625 -0.140625q0.546875 0 0.96875 0.140625q0.4375 0.140625 0.734375 0.390625q0.296875 0.25 0.453125 0.609375q0.171875 0.34375 0.171875 0.796875l0 0.78125l-1.828125 0q-1.03125 0 -1.875 0.203125q-0.828125 0.1875 -1.421875 0.59375q-0.59375 0.40625 -0.921875 1.015625q-0.3125 0.60939026 -0.3125 1.4218903q0 0.625 0.234375 1.15625q0.25 0.53125 0.6875 0.90625q0.4375 0.40625 1.0625 0.640625q0.640625 0.21875 1.4375 0.21875q0.46875 0 0.890625 -0.109375q0.4375 -0.09375 0.828125 -0.265625q0.375 -0.171875 0.6875 -0.390625q0.3125 -0.234375 0.5625 -0.5q0.03125 0.3125 0.09375 0.609375q0.0625 0.28125 0.15625 0.46875zm-2.984375 -1.28125q-0.484375 0 -0.859375 -0.125q-0.375 -0.140625 -0.625 -0.359375q-0.234375 -0.21875 -0.359375 -0.53125q-0.125 -0.3125 -0.125 -0.671875q0 -0.390625 0.140625 -0.6875q0.140625 -0.296875 0.40625 -0.51564026q0.390625 -0.3125 1.03125 -0.453125q0.65625 -0.15625 1.53125 -0.15625l1.5625 0l0 2.0000153q-0.140625 0.28125 -0.40625 0.5625q-0.25 0.265625 -0.59375 0.46875q-0.34375 0.203125 -0.78125 0.34375q-0.421875 0.125 -0.921875 0.125zm11.695572 -10.968765l-1.703125 0l0 2.390625l-2.578125 0l0 1.3125l2.578125 0l0 5.3437653q0 0.921875 0.234375 1.5625q0.25 0.640625 0.671875 1.046875q0.421875 0.40625 0.984375 0.59375q0.578125 0.1875 1.234375 0.1875q0.390625 0 0.78125 -0.046875q0.40625 -0.03125 0.75 -0.109375q0.359375 -0.0625 0.65625 -0.15625q0.296875 -0.09375 0.515625 -0.21875l-0.234375 -1.203125q-0.15625 0.046875 -0.40625 0.09375q-0.234375 0.046875 -0.515625 0.09375q-0.28125 0.046875 -0.578125 0.078125q-0.28125 0.03125 -0.546875 0.03125q-0.375 0 -0.71875 -0.09375q-0.328125 -0.09375 -0.578125 -0.3125q-0.265625 -0.21875 -0.40625 -0.59375q-0.140625 -0.375 -0.140625 -0.953125l0 -5.3437653l3.75 0l0 -1.3125l-3.75 0l0 -2.390625zm13.679947 12.250015l1.75 0l0 -0.140625q-0.15625 -0.421875 -0.25 -0.96875q-0.09375 -0.546875 -0.09375 -1.046875l0 -4.5781403q0 -0.828125 -0.296875 -1.4375q-0.296875 -0.625 -0.8125 -1.046875q-0.53125 -0.40625 -1.25 -0.609375q-0.71875 -0.203125 -1.5625 -0.203125q-0.921875 0 -1.65625 0.25q-0.71875 0.25 -1.21875 0.65625q-0.5 0.421875 -0.78125 0.953125q-0.265625 0.515625 -0.265625 1.046875l1.6875 0q0 -0.3125 0.140625 -0.59375q0.15625 -0.28125 0.4375 -0.5q0.265625 -0.203125 0.65625 -0.328125q0.40625 -0.140625 0.90625 -0.140625q0.546875 0 0.96875 0.140625q0.4375 0.140625 0.734375 0.390625q0.296875 0.25 0.453125 0.609375q0.171875 0.34375 0.171875 0.796875l0 0.78125l-1.828125 0q-1.03125 0 -1.875 0.203125q-0.828125 0.1875 -1.421875 0.59375q-0.59375 0.40625 -0.921875 1.015625q-0.3125 0.60939026 -0.3125 1.4218903q0 0.625 0.234375 1.15625q0.25 0.53125 0.6875 0.90625q0.4375 0.40625 1.0625 0.640625q0.640625 0.21875 1.4375 0.21875q0.46875 0 0.890625 -0.109375q0.4375 -0.09375 0.828125 -0.265625q0.375 -0.171875 0.6875 -0.390625q0.3125 -0.234375 0.5625 -0.5q0.03125 0.3125 0.09375 0.609375q0.0625 0.28125 0.15625 0.46875zm-2.984375 -1.28125q-0.484375 0 -0.859375 -0.125q-0.375 -0.140625 -0.625 -0.359375q-0.234375 -0.21875 -0.359375 -0.53125q-0.125 -0.3125 -0.125 -0.671875q0 -0.390625 0.140625 -0.6875q0.140625 -0.296875 0.40625 -0.51564026q0.390625 -0.3125 1.03125 -0.453125q0.65625 -0.15625 1.53125 -0.15625l1.5625 0l0 2.0000153q-0.140625 0.28125 -0.40625 0.5625q-0.25 0.265625 -0.59375 0.46875q-0.34375 0.203125 -0.78125 0.34375q-0.421875 0.125 -0.921875 0.125z" fill-rule="nonzero"/><path fill="#000000" fill-opacity="0.0" d="m194.78215 268.90027l95.086624 0l0 18.992126l-95.086624 0z" fill-rule="evenodd"/><path fill="#595959" d="m207.20403 290.50775l2.625 0q0.890625 -0.015625 1.6875 -0.28125q0.796875 -0.265625 1.390625 -0.765625q0.609375 -0.5 0.953125 -1.234375q0.359375 -0.734375 0.359375 -1.6875q0 -0.953125 -0.359375 -1.6875q-0.34375 -0.75 -0.953125 -1.25q-0.59375 -0.5 -1.390625 -0.765625q-0.796875 -0.265625 -1.6875 -0.28125l-4.3125 0l0 13.265625l1.6875 0l0 -5.3125zm0 -1.390625l0 -5.171875l2.625 0q0.578125 0 1.0625 0.1875q0.5 0.1875 0.875 0.515625q0.34375 0.34375 0.546875 0.828125q0.21875 0.484375 0.21875 1.078125q0 0.609375 -0.21875 1.078125q-0.203125 0.46875 -0.5625 0.796875q-0.359375 0.328125 -0.859375 0.5q-0.484375 0.171875 -1.0625 0.1875l-2.625 0zm15.836197 6.703125l1.75 0l0 -0.140625q-0.15625 -0.421875 -0.25 -0.96875q-0.09375 -0.546875 -0.09375 -1.046875l0 -4.578125q0 -0.828125 -0.296875 -1.4375q-0.296875 -0.625 -0.8125 -1.046875q-0.53125 -0.40625 -1.25 -0.609375q-0.71875 -0.203125 -1.5625 -0.203125q-0.921875 0 -1.65625 0.25q-0.71875 0.25 -1.21875 0.65625q-0.5 0.421875 -0.78125 0.953125q-0.265625 0.515625 -0.265625 1.046875l1.6875 0q0 -0.3125 0.140625 -0.59375q0.15625 -0.28125 0.4375 -0.5q0.265625 -0.203125 0.65625 -0.328125q0.40625 -0.140625 0.90625 -0.140625q0.546875 0 0.96875 0.140625q0.4375 0.140625 0.734375 0.390625q0.296875 0.25 0.453125 0.609375q0.171875 0.34375 0.171875 0.796875l0 0.78125l-1.828125 0q-1.03125 0 -1.875 0.203125q-0.828125 0.1875 -1.421875 0.59375q-0.59375 0.40625 -0.921875 1.015625q-0.3125 0.609375 -0.3125 1.421875q0 0.625 0.234375 1.15625q0.25 0.53125 0.6875 0.90625q0.4375 0.40625 1.0625 0.640625q0.640625 0.21875 1.4375 0.21875q0.46875 0 0.890625 -0.109375q0.4375 -0.09375 0.828125 -0.265625q0.375 -0.171875 0.6875 -0.390625q0.3125 -0.234375 0.5625 -0.5q0.03125 0.3125 0.09375 0.609375q0.0625 0.28125 0.15625 0.46875zm-2.984375 -1.28125q-0.484375 0 -0.859375 -0.125q-0.375 -0.140625 -0.625 -0.359375q-0.234375 -0.21875 -0.359375 -0.53125q-0.125 -0.3125 -0.125 -0.671875q0 -0.390625 0.140625 -0.6875q0.140625 -0.296875 0.40625 -0.515625q0.390625 -0.3125 1.03125 -0.453125q0.65625 -0.15625 1.53125 -0.15625l1.5625 0l0 2.0q-0.140625 0.28125 -0.40625 0.5625q-0.25 0.265625 -0.59375 0.46875q-0.34375 0.203125 -0.78125 0.34375q-0.421875 0.125 -0.921875 0.125zm14.164322 -8.75q-1.078125 0 -1.921875 0.46875q-0.84375 0.46875 -1.4375 1.265625l-0.015625 -0.234375l-0.078125 -1.328125l-1.59375 0l0 9.859375l1.6875 0l0 -6.328125q0.171875 -0.453125 0.421875 -0.8125q0.25 -0.375 0.578125 -0.625q0.375 -0.296875 0.875 -0.4375q0.5 -0.15625 1.125 -0.15625q0.484375 0 0.921875 0.046875q0.453125 0.046875 0.9375 0.15625l0.234375 -1.640625q-0.265625 -0.109375 -0.765625 -0.171875q-0.5 -0.0625 -0.96875 -0.0625zm9.086197 10.21875q1.4375 0 2.421875 -0.578125q0.984375 -0.578125 1.46875 -1.328125l-1.03125 -0.796875q-0.46875 0.59375 -1.171875 0.96875q-0.6875 0.359375 -1.59375 0.359375q-0.6875 0 -1.25 -0.25q-0.5625 -0.265625 -0.96875 -0.71875q-0.390625 -0.40625 -0.609375 -0.953125q-0.21875 -0.546875 -0.28125 -1.265625l0 -0.078125l7.03125 0l0 -0.75q0 -1.03125 -0.265625 -1.90625q-0.25 -0.890625 -0.78125 -1.546875q-0.53125 -0.640625 -1.328125 -1.0q-0.796875 -0.375 -1.859375 -0.375q-0.84375 0 -1.65625 0.34375q-0.796875 0.34375 -1.4375 0.984375q-0.625 0.65625 -1.015625 1.609375q-0.375 0.9375 -0.375 2.125l0 0.390625q0 1.03125 0.34375 1.90625q0.34375 0.875 0.96875 1.5q0.609375 0.640625 1.484375 1.0q0.875 0.359375 1.90625 0.359375zm-0.21875 -8.84375q0.65625 0 1.125 0.234375q0.46875 0.234375 0.765625 0.625q0.3125 0.375 0.484375 0.90625q0.171875 0.515625 0.171875 0.984375l0 0.078125l-5.296875 0q0.09375 -0.6875 0.34375 -1.203125q0.265625 -0.53125 0.625 -0.890625q0.359375 -0.359375 0.8125 -0.546875q0.453125 -0.1875 0.96875 -0.1875zm7.054947 8.65625l1.6875 0l0 -7.0625q0.171875 -0.328125 0.40625 -0.59375q0.234375 -0.265625 0.515625 -0.453125q0.328125 -0.234375 0.71875 -0.359375q0.40625 -0.140625 0.875 -0.140625q0.546875 0 0.953125 0.125q0.421875 0.125 0.70314026 0.40625q0.28125 0.296875 0.421875 0.75q0.15625 0.453125 0.15625 1.109375l0 6.21875l1.6875 0l0 -6.265625q0 -0.96875 -0.25 -1.6875q-0.234375 -0.71875 -0.6875 -1.1875q-0.4375 -0.453125 -1.078125 -0.671875q-0.62501526 -0.21875 -1.4062653 -0.21875q-0.5625 0 -1.078125 0.171875q-0.515625 0.15625 -0.953125 0.4375q-0.296875 0.1875 -0.5625 0.453125q-0.25 0.265625 -0.46875 0.5625l-0.125 -1.453125l-1.515625 0l0 9.859375zm15.195572 -12.25l-1.703125 0l0 2.390625l-2.578125 0l0 1.3125l2.578125 0l0 5.34375q0 0.921875 0.234375 1.5625q0.25 0.640625 0.671875 1.046875q0.421875 0.40625 0.984375 0.59375q0.578125 0.1875 1.234375 0.1875q0.390625 0 0.78125 -0.046875q0.40625 -0.03125 0.75 -0.109375q0.359375 -0.0625 0.65625 -0.15625q0.296875 -0.09375 0.515625 -0.21875l-0.234375 -1.203125q-0.15625 0.046875 -0.40625 0.09375q-0.234375 0.046875 -0.515625 0.09375q-0.28125 0.046875 -0.578125 0.078125q-0.28125 0.03125 -0.546875 0.03125q-0.375 0 -0.71875 -0.09375q-0.328125 -0.09375 -0.578125 -0.3125q-0.265625 -0.21875 -0.40625 -0.59375q-0.140625 -0.375 -0.140625 -0.953125l0 -5.34375l3.75 0l0 -1.3125l-3.75 0l0 -2.390625z" fill-rule="nonzero"/><path fill="#000000" fill-opacity="0.0" d="m264.0 218.85826l41.322845 20.755905" fill-rule="evenodd"/><path stroke="#595959" stroke-width="2.0" stroke-linejoin="round" stroke-linecap="butt" d="m264.0 218.85826l30.599518 15.369736" fill-rule="evenodd"/><path fill="#595959" stroke="#595959" stroke-width="2.0" stroke-linecap="butt" d="m293.1168 237.18001l9.593323 1.1218262l-6.627838 -7.025833z" fill-rule="evenodd"/><path fill="#000000" fill-opacity="0.0" d="m255.9029 252.7664l49.795258 0" fill-rule="evenodd"/><path stroke="#595959" stroke-width="2.0" stroke-linejoin="round" stroke-linecap="butt" d="m255.9029 252.7664l37.795258 0" fill-rule="evenodd"/><path fill="#595959" stroke="#595959" stroke-width="2.0" stroke-linecap="butt" d="m293.69815 256.06985l9.076202 -3.3034515l-9.076202 -3.3034668z" fill-rule="evenodd"/><path fill="#000000" fill-opacity="0.0" d="m276.0 289.7139l28.818909 -20.629913" fill-rule="evenodd"/><path stroke="#595959" stroke-width="2.0" stroke-linejoin="round" stroke-linecap="butt" d="m276.0 289.7139l19.06131 -13.6449585" fill-rule="evenodd"/><path fill="#595959" stroke="#595959" stroke-width="2.0" stroke-linecap="butt" d="m296.9842 278.7551l5.4572754 -7.9692383l-9.30304 2.5969238z" fill-rule="evenodd"/><path fill="#000000" fill-opacity="0.0" d="m635.81354 252.66405l72.27551 0l0 -46.771652l0.0079956055 0" fill-rule="evenodd"/><path stroke="#595959" stroke-width="2.0" stroke-linejoin="round" stroke-linecap="butt" d="m635.81354 252.66405l72.27551 0l0 -39.917496" fill-rule="evenodd"/><path fill="#595959" stroke="#595959" stroke-width="2.0" stroke-linecap="butt" d="m708.08905 212.74655l2.246582 2.2517853l-2.2420044 -6.182144l-2.2563477 6.1769257z" fill-rule="evenodd"/><path fill="#000000" fill-opacity="0.0" d="m675.0 163.87665l257.3543 0l0 42.015747l-257.3543 0z" fill-rule="evenodd"/><path fill="#000000" fill-opacity="0.0" d="m648.23096 171.50656l164.47247 0l0 18.992126l-164.47247 0z" fill-rule="evenodd"/><path fill="#595959" d="m658.77783 198.42656l0 -13.265625l3.734375 0q1.734375 0 3.0625 0.765625q1.328125 0.765625 2.046875 2.1875q0.734375 1.40625 0.734375 3.234375l0 0.84375q0 1.875 -0.71875 3.296875q-0.71875 1.40625 -2.0625 2.171875q-1.34375 0.75 -3.140625 0.765625l-3.65625 0zm1.734375 -11.828125l0 10.390625l1.84375 0q2.03125 0 3.15625 -1.25q1.125 -1.25 1.125 -3.578125l0 -0.78125q0 -2.25 -1.0625 -3.5q-1.0625 -1.265625 -3.015625 -1.28125l-2.046875 0zm12.23407 6.640625l0 5.1875l-1.734375 0l0 -13.265625l4.890625 0q2.171875 0 3.40625 1.109375q1.234375 1.109375 1.234375 2.953125q0 1.921875 -1.21875 2.96875q-1.203125 1.046875 -3.453125 1.046875l-3.125 0zm0 -1.4375l3.15625 0q1.390625 0 2.140625 -0.65625q0.75 -0.65625 0.75 -1.90625q0 -1.1875 -0.75 -1.890625q-0.75 -0.71875 -2.046875 -0.75l-3.25 0l0 5.203125zm11.910095 6.625l-1.75 0l0 -13.265625l1.75 0l0 13.265625zm6.4333496 -4.953125l-4.4375 0l0 -1.375l4.4375 0l0 1.375zm11.662476 0.75q-0.25 2.09375 -1.5625 3.25q-1.296875 1.140625 -3.46875 1.140625q-2.34375 0 -3.765625 -1.6875q-1.421875 -1.6875 -1.421875 -4.515625l0 -1.265625q0 -1.859375 0.65625 -3.25q0.671875 -1.40625 1.875 -2.15625q1.21875 -0.765625 2.8125 -0.765625q2.109375 0 3.390625 1.1875q1.28125 1.171875 1.484375 3.265625l-1.765625 0q-0.21875 -1.578125 -0.984375 -2.28125q-0.765625 -0.71875 -2.125 -0.71875q-1.671875 0 -2.625 1.234375q-0.953125 1.234375 -0.953125 3.53125l0 1.28125q0 2.15625 0.890625 3.4375q0.90625 1.265625 2.53125 1.265625q1.453125 0 2.234375 -0.65625q0.78125 -0.65625 1.03125 -2.296875l1.765625 0zm2.4555054 5.34375l-1.453125 0l5.546875 -14.40625l1.4375 0l-5.53125 14.40625zm13.094666 -3.75q0 -0.6875 -0.515625 -1.0625q-0.515625 -0.375 -1.796875 -0.640625q-1.28125 -0.28125 -2.03125 -0.65625q-0.75 -0.390625 -1.109375 -0.921875q-0.359375 -0.53125 -0.359375 -1.265625q0 -1.203125 1.015625 -2.03125q1.03125 -0.84375 2.625 -0.84375q1.671875 0 2.71875 0.859375q1.046875 0.859375 1.046875 2.21875l-1.6875 0q0 -0.703125 -0.59375 -1.203125q-0.59375 -0.5 -1.484375 -0.5q-0.921875 0 -1.4375 0.40625q-0.515625 0.390625 -0.515625 1.046875q0 0.609375 0.484375 0.921875q0.484375 0.3125 1.734375 0.59375q1.265625 0.28125 2.046875 0.671875q0.78125 0.390625 1.15625 0.9375q0.390625 0.546875 0.390625 1.34375q0 1.328125 -1.0625 2.125q-1.046875 0.796875 -2.734375 0.796875q-1.1875 0 -2.109375 -0.421875q-0.90625 -0.421875 -1.421875 -1.171875q-0.515625 -0.75 -0.515625 -1.625l1.6875 0q0.046875 0.84375 0.671875 1.34375q0.640625 0.5 1.6875 0.5q0.953125 0 1.53125 -0.390625q0.578125 -0.390625 0.578125 -1.03125zm6.166504 -9.640625l0 2.390625l1.84375 0l0 1.3125l-1.84375 0l0 6.109375q0 0.59375 0.234375 0.890625q0.25 0.296875 0.84375 0.296875q0.296875 0 0.8125 -0.109375l0 1.359375q-0.671875 0.1875 -1.296875 0.1875q-1.125 0 -1.703125 -0.6875q-0.578125 -0.6875 -0.578125 -1.9375l0 -6.109375l-1.796875 0l0 -1.3125l1.796875 0l0 -2.390625l1.6875 0zm3.3911133 7.234375q0 -2.265625 1.078125 -3.640625q1.078125 -1.375 2.8125 -1.375q1.734375 0 2.75 1.171875l0 -5.140625l1.6875 0l0 14.0l-1.546875 0l-0.09375 -1.0625q-1.0 1.25 -2.8125 1.25q-1.703125 0 -2.796875 -1.40625q-1.078125 -1.40625 -1.078125 -3.65625l0 -0.140625zm1.6875 0.203125q0 1.671875 0.6875 2.625q0.703125 0.9375 1.921875 0.9375q1.609375 0 2.34375 -1.4375l0 -4.53125q-0.765625 -1.390625 -2.328125 -1.390625q-1.234375 0 -1.9375 0.953125q-0.6875 0.953125 -0.6875 2.84375zm8.802734 -0.203125q0 -1.453125 0.5625 -2.609375q0.578125 -1.15625 1.59375 -1.78125q1.015625 -0.625 2.3125 -0.625q2.015625 0 3.25 1.390625q1.25 1.390625 1.25 3.703125l0 0.125q0 1.4375 -0.546875 2.578125q-0.546875 1.140625 -1.578125 1.78125q-1.015625 0.640625 -2.359375 0.640625q-2.0 0 -3.25 -1.390625q-1.234375 -1.40625 -1.234375 -3.703125l0 -0.109375zm1.6875 0.203125q0 1.640625 0.765625 2.640625q0.765625 0.984375 2.03125 0.984375q1.296875 0 2.046875 -1.0q0.75 -1.015625 0.75 -2.828125q0 -1.625 -0.765625 -2.625q-0.765625 -1.015625 -2.046875 -1.015625q-1.25 0 -2.015625 1.0q-0.765625 0.984375 -0.765625 2.84375zm15.483643 3.84375q-0.984375 1.15625 -2.890625 1.15625q-1.578125 0 -2.40625 -0.921875q-0.8125 -0.921875 -0.828125 -2.703125l0 -6.421875l1.6875 0l0 6.375q0 2.234375 1.828125 2.234375q1.921875 0 2.5625 -1.4375l0 -7.171875l1.6875 0l0 9.859375l-1.609375 0l-0.03125 -0.96875zm6.487732 -11.28125l0 2.390625l1.84375 0l0 1.3125l-1.84375 0l0 6.109375q0 0.59375 0.234375 0.890625q0.25 0.296875 0.84375 0.296875q0.296875 0 0.8125 -0.109375l0 1.359375q-0.671875 0.1875 -1.296875 0.1875q-1.125 0 -1.703125 -0.6875q-0.578125 -0.6875 -0.578125 -1.9375l0 -6.109375l-1.796875 0l0 -1.3125l1.796875 0l0 -2.390625l1.6875 0z" fill-rule="nonzero"/><path fill="#000000" fill-opacity="0.0" d="m208.40158 150.41995l295.68503 0l0 29.165344l-295.68503 0z" fill-rule="evenodd"/><path fill="#595959" d="m231.58908 179.1487q-0.90625 1.0625 -2.546875 1.65625q-1.625 0.59375 -3.625 0.59375q-2.09375 0 -3.671875 -0.90625q-1.5625 -0.921875 -2.421875 -2.65625q-0.859375 -1.734375 -0.875 -4.078125l0 -1.09375q0 -2.421875 0.8125 -4.171875q0.8125 -1.765625 2.34375 -2.703125q1.53125 -0.9375 3.578125 -0.9375q2.875 0 4.484375 1.375q1.625 1.359375 1.921875 3.96875l-3.234375 0q-0.21875 -1.390625 -0.984375 -2.03125q-0.75 -0.640625 -2.078125 -0.640625q-1.703125 0 -2.59375 1.28125q-0.875 1.265625 -0.890625 3.78125l0 1.03125q0 2.53125 0.96875 3.828125q0.96875 1.296875 2.828125 1.296875q1.859375 0 2.65625 -0.796875l0 -2.78125l-3.015625 0l0 -2.453125l6.34375 0l0 6.4375zm7.979233 2.25q-2.625 0 -4.28125 -1.609375q-1.65625 -1.625 -1.65625 -4.3125l0 -0.296875q0 -1.8125 0.6875 -3.234375q0.703125 -1.421875 1.984375 -2.1875q1.28125 -0.765625 2.921875 -0.765625q2.453125 0 3.859375 1.546875q1.40625 1.546875 1.40625 4.390625l0 1.3125l-7.625 0q0.15625 1.171875 0.9375 1.875q0.78125 0.703125 1.984375 0.703125q1.84375 0 2.875 -1.328125l1.578125 1.75q-0.71875 1.015625 -1.953125 1.59375q-1.21875 0.5625 -2.71875 0.5625zm-0.359375 -9.828125q-0.953125 0 -1.546875 0.65625q-0.59375 0.640625 -0.75 1.828125l4.4375 0l0 -0.25q-0.015625 -1.0625 -0.578125 -1.640625q-0.546875 -0.59375 -1.5625 -0.59375zm10.043198 -2.359375l0.09375 1.375q1.28125 -1.59375 3.4375 -1.59375q1.90625 0 2.828125 1.125q0.9375 1.109375 0.96875 3.328125l0 7.734375l-3.203125 0l0 -7.65625q0 -1.015625 -0.453125 -1.46875q-0.4375 -0.46875 -1.453125 -0.46875q-1.359375 0 -2.03125 1.15625l0 8.4375l-3.203125 0l0 -11.96875l3.015625 0zm19.641937 4.984375l-6.375 0l0 4.3125l7.484375 0l0 2.671875l-10.796875 0l0 -16.109375l10.78125 0l0 2.6875l-7.46875 0l0 3.84375l6.375 0l0 2.59375zm7.0345154 3.078125l2.234375 -8.0625l3.328125 0l-4.03125 11.96875l-3.046875 0l-4.046875 -11.96875l3.34375 0l2.21875 8.0625zm12.337189 4.125q-2.625 0 -4.28125 -1.609375q-1.65625 -1.625 -1.65625 -4.3125l0 -0.296875q0 -1.8125 0.6875 -3.234375q0.703125 -1.421875 1.984375 -2.1875q1.28125 -0.765625 2.921875 -0.765625q2.453125 0 3.859375 1.546875q1.40625 1.546875 1.40625 4.390625l0 1.3125l-7.625 0q0.15625 1.171875 0.9375 1.875q0.78125 0.703125 1.984375 0.703125q1.84375 0 2.875 -1.328125l1.578125 1.75q-0.71875 1.015625 -1.953125 1.59375q-1.21875 0.5625 -2.71875 0.5625zm-0.359375 -9.828125q-0.953125 0 -1.546875 0.65625q-0.59375 0.640625 -0.75 1.828125l4.4375 0l0 -0.25q-0.015625 -1.0625 -0.578125 -1.640625q-0.546875 -0.59375 -1.5625 -0.59375zm10.043182 -2.359375l0.09375 1.375q1.28125 -1.59375 3.4375 -1.59375q1.90625 0 2.828125 1.125q0.9375 1.109375 0.96875 3.328125l0 7.734375l-3.203125 0l0 -7.65625q0 -1.015625 -0.453125 -1.46875q-0.4375 -0.46875 -1.453125 -0.46875q-1.359375 0 -2.03125 1.15625l0 8.4375l-3.203125 0l0 -11.96875l3.015625 0zm13.579468 -2.9375l0 2.9375l2.046875 0l0 2.34375l-2.046875 0l0 5.96875q0 0.671875 0.25 0.96875q0.25 0.28125 0.96875 0.28125q0.53125 0 0.9375 -0.078125l0 2.421875q-0.9375 0.28125 -1.9375 0.28125q-3.359375 0 -3.421875 -3.390625l0 -6.453125l-1.75 0l0 -2.34375l1.75 0l0 -2.9375l3.203125 0z" fill-rule="nonzero"/><path fill="#595959" d="m320.5125 185.66432l-2.015625 0q-1.59375 -2.40625 -2.4375 -5.0q-0.828125 -2.59375 -0.828125 -5.015625q0 -3.015625 1.03125 -5.6875q0.90625 -2.34375 2.28125 -4.3125l2.0 0q-1.4375 3.15625 -1.96875 5.375q-0.53125 2.203125 -0.53125 4.6875q0 1.703125 0.3125 3.5q0.3125 1.796875 0.875 3.40625q0.359375 1.0625 1.28125 3.046875zm1.430542 0q0.859375 -1.84375 1.21875 -2.84375q0.359375 -0.984375 0.65625 -2.265625q0.296875 -1.296875 0.4375 -2.453125q0.15625 -1.171875 0.15625 -2.390625q0 -2.484375 -0.53125 -4.6875q-0.53125 -2.21875 -1.953125 -5.375l1.984375 0q1.578125 2.25 2.4375 4.765625q0.875 2.5 0.875 5.078125q0 2.171875 -0.6875 4.671875q-0.78125 2.78125 -2.578125 5.5l-2.015625 0z" fill-rule="nonzero"/><path fill="#000000" fill-opacity="0.0" d="m488.95145 444.7966l-0.31497192 -165.66931" fill-rule="evenodd"/><path stroke="#595959" stroke-width="2.0" stroke-linejoin="round" stroke-linecap="butt" d="m488.95145 444.7966l-0.3019104 -158.81512" fill-rule="evenodd"/><path fill="#595959" stroke="#595959" stroke-width="2.0" stroke-linecap="butt" d="m488.6495 285.98145l2.2534485 2.2449036l-2.2609253 -6.1752625l-2.2373962 6.1838074z" fill-rule="evenodd"/><path fill="#000000" fill-opacity="0.0" d="m398.01 419.65042l34.64566 14.834656" fill-rule="evenodd"/><path stroke="#595959" stroke-width="2.0" stroke-linejoin="round" stroke-linecap="butt" d="m398.01 419.65042l28.344818 12.136749" fill-rule="evenodd"/><path fill="#595959" stroke="#595959" stroke-width="2.0" stroke-linecap="butt" d="m426.3548 431.78717l-2.9529114 1.1822815l6.5660095 0.3647766l-4.7953796 -4.5z" fill-rule="evenodd"/></g></svg>